<?xml version="1.0" encoding="UTF-8"?>
<svg version="1.1" xmlns="http://www.w3.org/2000/svg" width="2000" height="2000">
<path d="M0 0 C660 0 1320 0 2000 0 C2000 660 2000 1320 2000 2000 C1340 2000 680 2000 0 2000 C0 1340 0 680 0 0 Z " fill="#0C0C0C" transform="translate(0,0)"/>
<path d="M0 0 C4.65848233 2.8013055 8.34407717 6.06054822 12.13690186 9.8896637 C12.72456526 10.47491269 13.31222867 11.06016168 13.91770005 11.66314548 C15.87536313 13.61519626 17.82582758 15.57428049 19.77636719 17.53344727 C21.18243444 18.93844105 22.58893467 20.34300164 23.99583435 21.74716187 C27.80793296 25.55442045 31.61376411 29.36788777 35.41836071 33.18264127 C39.40063814 37.17370978 43.38819432 41.15949775 47.37506104 45.14598083 C54.06644426 51.83830002 60.75394606 58.53447792 67.43896484 65.2331543 C75.17236332 72.98229358 82.91099144 80.7261784 90.65263057 88.46708447 C98.09814225 95.9119863 105.54079472 103.35973924 112.98184967 110.80909538 C116.15008685 113.98086663 119.31917495 117.15178408 122.48891449 120.32205391 C126.21768671 124.05182902 129.94390383 127.78413831 133.6681385 131.51844406 C135.03710903 132.89034048 136.40693156 134.26138731 137.77765465 135.63153267 C139.644438 137.49782683 141.50812753 139.36715582 143.37103271 141.23731995 C143.91751992 141.78225855 144.46400712 142.32719715 145.02705455 142.88864905 C148.7790145 146.6648823 151.29514001 149.25017431 151.5 154.6875 C151.39614112 160.61611108 148.95110302 163.797111 145 168 C144.2575 168.825 143.515 169.65 142.75 170.5 C141 172 141 172 139 172 C138.73574219 172.60328125 138.47148438 173.2065625 138.19921875 173.828125 C136.94244926 176.1042287 135.84559838 177.16818433 133.8125 178.75 C130.33931473 181.60090624 127.48418228 184.75365885 124.5703125 188.1640625 C122.80609938 190.22669972 121.03022512 192.19535545 119 194 C118.34 194 117.68 194 117 194 C116.67 194.99 116.34 195.98 116 197 C115.34 197 114.68 197 114 197 C113.67 197.99 113.34 198.98 113 200 C111.33784732 201.33895632 109.67036393 202.67130142 108 204 C107.08192425 205.06454938 106.18591487 206.1485124 105.3125 207.25 C104.1678125 208.61125 104.1678125 208.61125 103 210 C102.34 210 101.68 210 101 210 C101 210.66 101 211.32 101 212 C99.49609375 213.48046875 99.49609375 213.48046875 97.4375 215.1875 C90.3421461 220.85095856 90.3421461 220.85095856 85 228 C85.53546951 228.21047974 86.07093903 228.42095947 86.62263489 228.63781738 C89.91658625 230.52518557 92.387871 233.11809253 95.0378418 235.79492188 C95.63178741 236.38696915 96.22573303 236.97901642 96.837677 237.58900452 C98.79644196 239.54406955 100.74792182 241.50623348 102.69921875 243.46875 C104.05837648 244.82909991 105.41790415 246.18908028 106.77778625 247.54870605 C109.62457983 250.39706306 112.46798349 253.248747 115.30883789 256.10302734 C118.95569616 259.7668994 122.60912691 263.42412992 126.26488018 267.07912445 C129.0712128 269.88572855 131.87493491 272.69492798 134.67777443 275.50502014 C136.02443052 276.85486429 137.37169834 278.20409845 138.7195797 279.55271912 C140.59903454 281.43433468 142.4751637 283.31920168 144.3503418 285.20507812 C145.19111519 286.04517174 145.19111519 286.04517174 146.0488739 286.90223694 C149.66275116 290.54640388 151.18326205 292.50968209 151.5 297.625 C151.5721875 298.44226563 151.644375 299.25953125 151.71875 300.1015625 C149.56987864 308.76711982 139.07815498 316.05763911 132.86401367 322.24951172 C131.75272481 323.36051797 130.64165716 324.47174553 129.53079224 325.58317566 C126.53546828 328.57878479 123.53708597 331.57131526 120.53811812 334.56327581 C117.3942394 337.70087117 114.25322309 340.84132948 111.1118927 343.98147583 C105.17017365 349.92009507 99.2259121 355.85616253 93.28071719 361.79130185 C86.51669056 368.54413632 79.75551526 375.29982256 72.99457586 382.05574775 C59.66306897 395.37724923 46.32833829 408.69551912 32.99130535 422.01148796 C31.66040257 423.34052382 30.32996965 424.67003035 29 426 C28.54109375 425.01 28.0821875 424.02 27.609375 423 C27.16549438 422.04540894 27.16549438 422.04540894 26.71264648 421.0715332 C26.0697532 419.68808164 25.42864511 418.30379912 24.78930664 416.91870117 C23.11527595 413.31063348 21.36665321 409.79293105 19.4375 406.3125 C18 403 18 403 18.69140625 401.02734375 C20.11092486 398.82814925 21.64192803 397.0923256 23.5 395.25 C24.1084375 394.63640625 24.716875 394.0228125 25.34375 393.390625 C27 392 27 392 29 392 C29.33 391.01 29.66 390.02 30 389 C31.6015625 387.421875 31.6015625 387.421875 33.625 385.75 C40.68768648 380.11661442 40.68768648 380.11661442 46 373 C46.66 373 47.32 373 48 373 C48.33 372.01 48.66 371.02 49 370 C50.56640625 368.4921875 50.56640625 368.4921875 52.5625 366.875 C56.59193718 363.48446457 59.9577251 359.7536308 63.3359375 355.72265625 C64.15964844 354.86994141 64.15964844 354.86994141 65 354 C65.66 354 66.32 354 67 354 C67.3403125 353.1646875 67.3403125 353.1646875 67.6875 352.3125 C69.37318438 349.34248466 71.55636965 347.39315877 74 345 C75.00674854 343.98654966 76.01146778 342.97108038 77.0144043 341.95385742 C79.93925341 338.99363252 82.87001077 336.03933836 85.80297852 333.0871582 C87.06646722 331.81352099 88.32816847 330.53810824 89.58813477 329.26098633 C91.4121853 327.41280752 93.24250523 325.57104904 95.07421875 323.73046875 C95.63880295 323.15556198 96.20338715 322.58065521 96.78507996 321.98832703 C98.15261225 320.62040069 99.57193248 319.30460347 101 318 C101.66 318 102.32 318 103 318 C103 317.34 103 316.68 103 316 C104.35546875 314.66796875 104.35546875 314.66796875 106.1875 313.1875 C109.30237295 310.6053518 112.17375061 307.90062438 115 305 C115.94875 304.154375 116.8975 303.30875 117.875 302.4375 C120.23725658 300.30228969 120.23725658 300.30228969 119.88946629 298.12685776 C118.70846764 295.30289898 117.06299274 293.6944719 114.89353943 291.53277588 C114.00867859 290.64379105 113.12381775 289.75480621 112.21214294 288.83888245 C111.22416764 287.8615242 110.23604942 286.8843104 109.24780273 285.90722656 C108.21254133 284.87281138 107.17794008 283.83773513 106.14395142 282.80204773 C103.33466311 279.99189787 100.51621395 277.19110054 97.69605136 274.39186954 C94.75051638 271.46507458 91.8134617 268.52979502 88.87550354 265.59539795 C83.31059456 260.03981728 77.73808167 254.49192889 72.16280848 248.94675136 C65.81600859 242.63347094 59.47771415 236.31168088 53.14012611 229.98915529 C40.10287072 216.98326676 27.05495198 203.98812387 14 191 C10.61798868 192.59213193 8.46644384 194.34788868 5.875 197.0625 C2.5763566 200.50429208 1.21403481 201.83254692 -3.625 202.5 C-7.38889784 202.45074081 -9.03629542 201.49134056 -11.77783203 198.95605469 C-12.4718512 198.31841187 -13.16587036 197.68076904 -13.88092041 197.02380371 C-17.26954362 193.7875363 -20.62128503 190.52145964 -23.9296875 187.203125 C-24.64609406 186.48767517 -25.36250061 185.77222534 -26.10061646 185.03509521 C-27.59923002 183.53715682 -29.09660298 182.03797629 -30.59277344 180.53759766 C-32.88623373 178.23873983 -35.18503743 175.94532145 -37.484375 173.65234375 C-38.94563359 172.19042504 -40.40658231 170.72819652 -41.8671875 169.265625 C-42.55360321 168.58123352 -43.24001892 167.89684204 -43.94723511 167.19171143 C-44.89930344 166.23491486 -44.89930344 166.23491486 -45.87060547 165.25878906 C-46.42827606 164.70032288 -46.98594666 164.14185669 -47.56051636 163.56646729 C-49.89599548 161.02496454 -50.95946573 159.2296942 -51.5625 155.8125 C-50.75350957 150.32934264 -48.03746492 147.68947097 -44 144 C-42.40172389 142.97094883 -40.80132154 141.94425973 -39.1736784 140.96231747 C-29.57966855 135.06828438 -20.99797631 127.81877779 -17 117 C-15.00387763 105.46389769 -15.69585267 93.60532049 -16.10306931 81.95405197 C-16.23834191 77.6674504 -16.29669686 73.3798096 -16.36218262 69.0916748 C-16.50096778 60.72496851 -16.72292725 52.36326568 -17 44 C-17.84760045 44.85036583 -17.84760045 44.85036583 -18.71232414 45.71791077 C-32.44350684 59.49320613 -46.18017991 73.2630041 -59.92303276 87.0266571 C-66.56875828 93.68270802 -73.21259251 100.34062665 -79.85205078 107.00292969 C-85.63703529 112.80780947 -91.42549237 118.60919961 -97.21819794 124.40637493 C-100.28704571 127.47783664 -103.35409103 130.55105196 -106.41698837 133.62844849 C-109.29690774 136.52189081 -112.18142882 139.41066223 -115.06962585 142.29584122 C-116.13160672 143.35837462 -117.19186056 144.42263724 -118.25029373 145.48870468 C-119.6900865 146.9383757 -121.13658424 148.38137845 -122.58346558 149.82397461 C-123.79746694 151.04074135 -123.79746694 151.04074135 -125.03599358 152.28208923 C-127 154 -127 154 -129 154 C-123.61158042 160.37130456 -117.84346789 166.29317045 -111.93383789 172.1796875 C-110.93752905 173.17571365 -109.94144159 174.17196127 -108.94555664 175.16841125 C-106.26440583 177.84984682 -103.58020181 180.52820642 -100.8954041 183.20598984 C-98.08157565 186.0135309 -95.27061349 188.82393888 -92.45933533 191.6340332 C-87.14563875 196.94463226 -81.82940016 202.2526789 -76.51222461 207.55979443 C-70.45456619 213.60624248 -64.3997759 219.65555919 -58.34521496 225.70510864 C-45.89997994 238.13991505 -33.45117995 250.57114641 -21 263 C-19.87369953 262.04031244 -18.74820223 261.0796822 -17.62304688 260.11865234 C-16.99619995 259.58380219 -16.36935303 259.04895203 -15.72351074 258.49789429 C-14.46132576 257.40093584 -13.2350115 256.26233252 -12.03125 255.1015625 C-9.29847664 252.46638819 -7.39051425 251.1105229 -3.6875 250.0625 C6.85477488 252.74273938 16.82642939 266.67394992 24.37133789 274.2409668 C26.58560051 276.46065714 28.80524635 278.67486599 31.02539062 280.88867188 C32.43521716 282.29915807 33.84473407 283.70995381 35.25390625 285.12109375 C35.91733536 285.78249863 36.58076447 286.4439035 37.26429749 287.12535095 C38.17676491 288.04254662 38.17676491 288.04254662 39.10766602 288.97827148 C39.64375992 289.51516098 40.17985382 290.05205048 40.73219299 290.60520935 C43.24038578 293.36462291 43.53440032 296.12942093 43.44970703 299.81152344 C42.20804651 305.85400168 36.12793585 310.0123985 31.36349487 313.36358643 C22.09145447 319.94743942 12.07675856 327.57247801 9.23413086 339.10791016 C6.60689185 355.81007369 7.77300044 373.2054948 9 390 C10.65 390 12.3 390 14 390 C14 392.97 14 395.94 14 399 C2.45 399 -9.1 399 -21 399 C-21 396.03 -21 393.06 -21 390 C-19.35 390 -17.7 390 -16 390 C-11.95636463 358.01048676 -11.95636463 358.01048676 -22.06710815 328.85943604 C-29.03820498 320.71908414 -37.25135606 313.79885111 -45.85131836 307.43701172 C-49.39153799 304.69695804 -50.78235764 303.23330668 -51.5625 298.8125 C-50.87355112 294.1429576 -49.22973475 292.39796196 -46.01953125 289.08984375 C-43.53855047 286.52248453 -41.28561064 283.74273276 -39 281 C-56.325 263.675 -56.325 263.675 -74 246 C-77.90872627 247.95436313 -79.88947826 249.65706177 -82.92041016 252.72509766 C-83.39570663 253.20331467 -83.87100311 253.68153168 -84.36070251 254.17424011 C-85.38816936 255.20929701 -86.41331981 256.2466574 -87.43638992 257.28606033 C-89.05397512 258.92921081 -90.67776066 260.56599799 -92.30331421 262.20126343 C-95.74950728 265.67028451 -99.1877875 269.14708351 -102.625 272.625 C-106.61476385 276.66190616 -110.60767434 280.6955901 -114.60908127 284.72095871 C-116.21190053 286.33678158 -117.80860075 287.95849121 -119.40518188 289.58047485 C-120.38261916 290.56517335 -121.36033616 291.54959429 -122.33837891 292.53369141 C-123.1923526 293.39813873 -124.04632629 294.26258606 -124.92617798 295.15322876 C-127 297 -127 297 -129 297 C-123.75888661 303.19935095 -118.15781373 308.94661727 -112.37695312 314.64135742 C-111.42822813 315.57995361 -110.47978027 316.51883001 -109.53158569 317.45796204 C-107.50577839 319.46381622 -105.4786128 321.46828382 -103.45051575 323.47182274 C-100.24438725 326.64030406 -97.04496226 329.81549671 -93.8470459 332.99226379 C-93.30552336 333.53014894 -92.76400083 334.06803409 -92.20606852 334.62221879 C-91.09987878 335.72100485 -89.99370458 336.81980655 -88.88754559 337.91862357 C-81.45256102 345.30373164 -74.01321711 352.68430669 -66.55566406 360.04663086 C-61.50876287 365.02918655 -56.47250644 370.02223069 -51.44838285 375.02775651 C-48.79315612 377.67229808 -46.13271047 380.31107613 -43.4591217 382.93706322 C-40.48580593 385.85761365 -37.53610516 388.80093888 -34.58789062 391.74682617 C-33.25248734 393.04751541 -33.25248734 393.04751541 -31.8901062 394.3744812 C-30.69570419 395.57908745 -30.69570419 395.57908745 -29.47717285 396.80802917 C-28.77740578 397.50096667 -28.0776387 398.19390417 -27.35666656 398.90783978 C-26 401 -26 401 -26.22394562 403.6175127 C-27.02172842 406.06670626 -27.94605965 408.3249404 -29.06640625 410.64453125 C-29.6706543 411.90620117 -29.6706543 411.90620117 -30.28710938 413.19335938 C-30.70798828 414.05767578 -31.12886719 414.92199219 -31.5625 415.8125 C-32.19961914 417.13797852 -32.19961914 417.13797852 -32.84960938 418.49023438 C-33.89471424 420.66264337 -34.94496762 422.83239957 -36 425 C-39.672231 423.45517721 -42.01531412 421.236133 -44.81994629 418.434021 C-45.29015025 417.96693702 -45.7603542 417.49985304 -46.24480677 417.01861501 C-47.81708167 415.45430888 -49.38212105 413.88296129 -50.94726562 412.31152344 C-52.07394185 411.18755764 -53.20104303 410.06401769 -54.32853699 408.94087219 C-57.38895485 405.88957648 -60.44300675 402.83198229 -63.49569511 399.77295589 C-66.69258291 396.57100475 -69.89434748 393.37393616 -73.09533691 390.17608643 C-78.47227394 384.80278911 -83.84497827 379.42528657 -89.21533203 374.04541016 C-95.41908461 367.83078411 -101.62999428 361.62338089 -107.84469271 355.41970229 C-113.18266635 350.09081457 -118.51671991 344.75802652 -123.84753752 339.42198014 C-127.03023125 336.23617247 -130.21425096 333.05172162 -133.40180969 329.87078094 C-136.40060809 326.87777394 -139.39444474 323.87988958 -142.3845768 320.87822533 C-143.48092378 319.77924088 -144.57896321 318.68194176 -145.67883873 317.58648872 C-147.18393115 316.08688958 -148.68268418 314.58121872 -150.18005371 313.07391357 C-151.01922081 312.23399242 -151.85838791 311.39407127 -152.72298431 310.52869797 C-156.2101917 306.65604383 -158.70088271 303.38054133 -159.8125 298.25 C-159.57920393 294.27951446 -157.93505684 292.42242458 -155.26977539 289.56103516 C-154.45042511 288.68135071 -153.63107483 287.80166626 -152.78689575 286.89532471 C-147.56419596 281.43923879 -142.22342369 276.10184442 -136.87109375 270.7734375 C-135.62820288 269.53241651 -134.38553616 268.291171 -133.14308167 267.04971313 C-129.90512502 263.81553685 -126.6641747 260.58437742 -123.42254639 257.35388184 C-120.10211509 254.04376212 -116.7845863 250.73073608 -113.46679688 247.41796875 C-106.98066853 240.94249848 -100.49136717 234.47021828 -94 228 C-95.63200309 223.84050045 -98.66991135 221.07712255 -101.79492188 218.00976562 C-102.38696915 217.42063889 -102.97901642 216.83151215 -103.58900452 216.22453308 C-104.87288336 214.9482549 -106.15906725 213.67429224 -107.44728088 212.40238953 C-109.48582527 210.38938868 -111.51804183 208.37019107 -113.54870605 206.34924316 C-117.86025052 202.06054982 -122.17955677 197.77972613 -126.5 193.5 C-131.50661517 188.54056861 -136.5100041 183.57797321 -141.50502014 178.6068573 C-143.50740101 176.61744453 -145.51571057 174.63415043 -147.52429199 172.65100098 C-148.7515159 171.43104233 -149.97845978 170.21080189 -151.20507812 168.99023438 C-151.76514053 168.44050461 -152.32520294 167.89077484 -152.90223694 167.3243866 C-156.82813563 163.39956663 -158.65898647 160.79807133 -159.6875 155.375 C-159.55299062 151.31768053 -158.05262303 149.52018462 -155.3221283 146.5997467 C-154.49978636 145.71931765 -153.67744442 144.83888859 -152.83018303 143.93177986 C-147.34739606 138.22344633 -141.7595893 132.62086688 -136.15844727 127.02905273 C-134.78086566 125.65011351 -133.40349632 124.27096221 -132.02632141 122.89161682 C-128.31428739 119.17505483 -124.59913486 115.46162537 -120.88324475 111.74891925 C-116.98828203 107.85650012 -113.09577303 103.96162841 -109.2028656 100.06715393 C-102.67585817 93.53833236 -96.14675615 87.01161105 -89.61645508 80.48608398 C-82.06121567 72.936304 -74.50961002 65.38290371 -66.95984608 57.82764858 C-60.47065462 51.33392617 -53.97952539 44.84214558 -47.4867577 38.35199887 C-43.61140164 34.47820334 -39.73672816 30.6037316 -35.86380196 26.72750664 C-32.23071231 23.09153795 -28.59520358 19.45800584 -24.95777702 15.82637596 C-23.62092586 14.49085143 -22.28493304 13.15446708 -20.94984436 11.81718063 C-19.13381967 9.99844116 -17.31477184 8.18278163 -15.49488831 6.36790466 C-14.6957363 5.56540658 -14.6957363 5.56540658 -13.88043982 4.74669641 C-9.56796877 0.45735984 -6.17751586 -1.16094695 0 0 Z " fill="#7517F0" transform="translate(589,722)"/>
<path d="M0 0 C1.02222656 -0.00515625 2.04445313 -0.0103125 3.09765625 -0.015625 C5.9375 0.25 5.9375 0.25 7.65307617 1.24072266 C10.83012138 2.64436751 13.9123873 2.60598068 17.328125 2.6640625 C18.03273865 2.68342865 18.73735229 2.7027948 19.46331787 2.7227478 C21.70459039 2.78232735 23.94591489 2.82884123 26.1875 2.875 C27.71095938 2.91319979 29.23439762 2.95225269 30.7578125 2.9921875 C34.48418106 3.08801018 38.21070835 3.17212107 41.9375 3.25 C42.10185547 4.59578125 42.10185547 4.59578125 42.26953125 5.96875 C43.13091486 12.74776897 44.1058113 19.466355 45.40625 26.17578125 C46.96634231 34.233707 48.2325972 42.31980853 49.4375 50.4375 C49.65598173 51.89390826 49.87465297 53.3502881 50.09350586 54.80664062 C51.38543486 63.42658692 52.63047062 72.05266086 53.84155273 80.68432617 C55.25424819 90.65095739 56.89077963 100.58242545 58.49853516 110.51904297 C59.34066197 115.75821454 60.14473417 121.00314196 60.9375 126.25 C63.22779497 119.2969696 64.13891973 112.13077191 65.21484375 104.91015625 C65.42852336 103.50110243 65.64268965 102.09212234 65.85731506 100.68321228 C66.42056125 96.97952357 66.97885175 93.27510752 67.5355835 89.57043457 C68.42174952 83.67530316 69.31304529 77.78095931 70.20892525 71.88729668 C70.5165535 69.8563915 70.82058504 67.82497289 71.12425232 65.79347229 C72.3325125 57.81721973 73.71592388 49.89763908 75.25535583 41.98013306 C76.43302217 35.54036217 77.24129999 29.05654967 78.0625 22.5625 C78.3960825 19.95411446 78.7328675 17.34617314 79.0703125 14.73828125 C79.28518311 13.04505737 79.28518311 13.04505737 79.50439453 11.31762695 C79.88622968 8.6131407 80.40184641 5.92826795 80.9375 3.25 C91.4975 3.25 102.0575 3.25 112.9375 3.25 C108.02227089 33.12141815 102.87054634 62.95029876 97.65603256 92.7706356 C96.21223903 101.02790014 94.77413795 109.28611259 93.34346521 117.54566091 C92.32071896 123.44736078 91.29150689 129.34791152 90.25758994 135.24766451 C89.64641659 138.73613602 89.03792794 142.22502073 88.43653488 145.71519279 C87.76954876 149.58513065 87.08915169 153.45264766 86.40771484 157.32006836 C86.21645523 158.4417189 86.02519562 159.56336945 85.82814026 160.7190094 C81.99753631 182.21307201 73.77204178 201.73427583 55.9375 215.25 C53.27272223 216.93521661 50.8946282 218.07734571 47.9375 219.25 C44.42163417 218.07804472 44.12063529 217.39264405 42.2734375 214.3203125 C41.79132813 213.52496094 41.30921875 212.72960938 40.8125 211.91015625 C40.3175 211.07355469 39.8225 210.23695313 39.3125 209.375 C38.80976562 208.54613281 38.30703125 207.71726562 37.7890625 206.86328125 C34.09046466 200.70889399 34.09046466 200.70889399 32.9375 197.25 C33.65035156 196.87230469 34.36320312 196.49460937 35.09765625 196.10546875 C47.98957827 188.6965176 52.00755973 177.90735441 55.9375 164.25 C56.2675 162.93 56.5975 161.61 56.9375 160.25 C50.3375 160.25 43.7375 160.25 36.9375 160.25 C36.67759277 158.7249585 36.41768555 157.19991699 36.14990234 155.62866211 C34.87389289 148.14773965 33.59424323 140.66744192 32.3125 133.1875 C32.13450174 132.14872208 32.13450174 132.14872208 31.95290756 131.08895874 C27.47399908 104.96020329 22.88424655 78.85161922 18.25 52.75 C18.09200676 51.86011761 17.93401352 50.97023521 17.7712326 50.05338669 C15.82952447 39.11841327 13.88468005 28.18400029 11.9375 17.25 C11.6075 22.86 11.2775 28.47 10.9375 34.25 C9.514375 33.755 8.09125 33.26 6.625 32.75 C-0.24999892 30.71187975 -6.83612223 29.78346465 -13.5 32.8125 C-21.13990249 40.07972432 -22.01976867 49.56250334 -22.3409729 59.71722412 C-22.36401629 61.59231393 -22.37707478 63.46754691 -22.38134766 65.34277344 C-22.39139328 66.37840424 -22.4014389 67.41403503 -22.41178894 68.48104858 C-22.44233901 71.85715244 -22.45957688 75.23317808 -22.4765625 78.609375 C-22.49529687 80.96877706 -22.51487193 83.32817258 -22.5352478 85.68756104 C-22.58633534 91.86218389 -22.62608556 98.03682841 -22.66339111 104.21154785 C-22.70357811 110.52650204 -22.75460307 116.84136792 -22.8046875 123.15625 C-22.9011697 135.52077713 -22.98465923 147.88534145 -23.0625 160.25 C-32.9625 160.25 -42.8625 160.25 -53.0625 160.25 C-53.0625 108.44 -53.0625 56.63 -53.0625 3.25 C-43.1625 3.25 -33.2625 3.25 -23.0625 3.25 C-22.7325 7.54 -22.4025 11.83 -22.0625 16.25 C-21.546875 15.05375 -21.03125 13.8575 -20.5 12.625 C-17.82930421 7.28360841 -14.07330778 3.72529581 -8.71875 1.1015625 C-5.68676073 0.12954241 -3.17975479 -0.01607967 0 0 Z " fill="#FCFCFC" transform="translate(1039.0625,877.75)"/>
<path d="M0 0 C9.9 0 19.8 0 30 0 C30 67.65 30 135.3 30 205 C20.1 205 10.2 205 0 205 C-0.33 201.37 -0.66 197.74 -1 194 C-1.515625 194.86625 -2.03125 195.7325 -2.5625 196.625 C-6.11900036 201.94713883 -10.83150589 206.11662225 -17 208 C-28.76550566 209.02516057 -38.74673512 208.47929906 -48.25 200.8125 C-59.98226014 189.69647979 -62.65639224 175.37003695 -63.18762207 159.77850342 C-63.28499326 155.23518187 -63.27879784 150.69255523 -63.265625 146.1484375 C-63.26697737 144.47465967 -63.26892262 142.80088222 -63.27142334 141.12710571 C-63.27434613 137.64622194 -63.27016873 134.16544188 -63.26074219 130.68457031 C-63.24933149 126.25935832 -63.2559356 121.83438862 -63.26788712 117.40918541 C-63.27516805 113.96188584 -63.27278971 110.51464225 -63.26763153 107.06734085 C-63.26631313 105.43692622 -63.26787794 103.80650622 -63.27259064 102.17609787 C-63.31246931 84.51624372 -62.38304455 66.95337441 -49.75 53.375 C-42.08059679 45.92001022 -33.76294647 44.6875 -23.43212891 44.6875 C-16.42919689 44.81926353 -12.09292649 45.97999123 -7.01171875 50.94140625 C-4.29687435 53.89563573 -2.27857722 56.16426835 -1 60 C-0.67 40.2 -0.34 20.4 0 0 Z " fill="#FCFCFC" transform="translate(1340,833)"/>
<path d="M0 0 C0.88171875 -0.00773438 1.7634375 -0.01546875 2.671875 -0.0234375 C14.80054374 0.01213044 27.51715872 2.6676111 36.625 11.25 C47.02190962 23.84625588 48.989064 38.61590568 48.75 54.4375 C48.70875 58.335625 48.6675 62.23375 48.625 66.25 C38.065 66.25 27.505 66.25 16.625 66.25 C16.3125 54.6875 16.3125 54.6875 16.23706055 51.08374023 C15.9055502 41.30126441 15.9055502 41.30126441 10.625 33.375 C6.41470336 31.00670814 2.34419002 30.77375147 -2.375 31.25 C-6.39529293 32.50222239 -8.66939634 33.33271524 -11.25 36.6875 C-15.11172354 45.48364806 -14.70309976 58.13105065 -11.3828125 67.08984375 C-7.00137562 76.48106311 0.04117205 80.29409765 8.77246094 85.19921875 C25.98202727 94.96068073 40.5419926 106.47723542 46.48095703 126.07446289 C48.66502794 134.53563385 49.07969558 142.60354417 49 151.3125 C49.01160156 152.58416016 49.02320313 153.85582031 49.03515625 155.16601562 C48.99213072 169.14214198 46.13879783 183.54864482 36.375 194.1875 C26.41329787 203.18587269 13.31155051 205.8113571 0.3125 205.6875 C-0.78892334 205.68065186 -1.89034668 205.67380371 -3.02514648 205.66674805 C-11.10044547 205.50737893 -17.98867309 204.73671332 -25.375 201.25 C-26.12265625 200.899375 -26.8703125 200.54875 -27.640625 200.1875 C-36.75559056 195.17774794 -42.43907484 187.03934903 -45.375 177.25 C-47.44004245 168.84756036 -47.61978496 160.6769465 -47.5 152.0625 C-47.45875 147.834375 -47.4175 143.60625 -47.375 139.25 C-37.145 139.25 -26.915 139.25 -16.375 139.25 C-16.125 150.75 -16.125 150.75 -16.07714844 154.32617188 C-15.86254017 161.01743176 -15.01694734 165.5818056 -11.375 171.25 C-6.07515084 174.64190346 -0.57531708 175.23817554 5.625 174.25 C9.75945977 172.86719082 12.62378416 171.03331037 14.78515625 167.18359375 C18.80810343 155.82578474 17.64942424 141.92279023 12.6171875 131.078125 C8.37532915 124.4085364 1.06876204 120.56012369 -5.47509766 116.44628906 C-13.83245287 111.18401194 -21.85301954 105.65809833 -29.375 99.25 C-30.01179687 98.73308594 -30.64859375 98.21617187 -31.3046875 97.68359375 C-39.19233638 90.68987841 -44.04469753 79.60161366 -45.375 69.25 C-45.65913433 64.41556141 -45.7466567 59.60075323 -45.74560547 54.75878906 C-45.74996479 52.51809815 -45.78633856 50.27940487 -45.82421875 48.0390625 C-45.93196323 34.31666078 -43.42654398 21.89502388 -33.78515625 11.54296875 C-24.23634044 2.668187 -12.67084249 -0.11018124 0 0 Z " fill="#FCFCFC" transform="translate(833.375,835.75)"/>
<path d="M0 0 C1.51231201 0.01135986 1.51231201 0.01135986 3.05517578 0.02294922 C15.50265876 0.2973346 26.21133101 3.31334794 35.4296875 12.09765625 C44.89299821 22.4319682 47.1892508 35.71105436 46.98046875 49.328125 C46.97622391 50.39875183 46.97197906 51.46937866 46.96760559 52.57244873 C46.95100325 55.94440398 46.9133869 59.31572977 46.875 62.6875 C46.85992929 64.99348087 46.8462451 67.29947123 46.83398438 69.60546875 C46.80116058 75.21635544 46.75114986 80.82688273 46.6875 86.4375 C39.49096635 87.87847052 32.2932228 89.31322617 25.09389305 90.74016571 C21.75062263 91.40301741 18.40779802 92.0679637 15.06591797 92.73779297 C11.21967378 93.50861705 7.37161993 94.27015868 3.5234375 95.03125 C2.32947357 95.27186157 1.13550964 95.51247314 -0.09463501 95.76037598 C-1.77569839 96.09071838 -1.77569839 96.09071838 -3.49072266 96.42773438 C-4.47223297 96.62314819 -5.45374329 96.81856201 -6.46499634 97.01989746 C-9.45314269 97.45812605 -12.29672619 97.50969898 -15.3125 97.4375 C-15.23075827 100.9383943 -15.11799732 104.43765493 -15 107.9375 C-14.97744141 108.91976562 -14.95488281 109.90203125 -14.93164062 110.9140625 C-14.67126858 118.01511838 -13.9379822 124.134474 -9.375 129.875 C-5.02679704 133.16909315 0.44108755 132.92935117 5.6875 132.4375 C9.53286831 131.15571056 11.15484733 130.306496 13.27734375 126.84375 C14.92323077 122.86808938 15.45553633 119.30973407 15.875 115.0625 C16.143125 112.54625 16.41125 110.03 16.6875 107.4375 C26.5875 107.4375 36.4875 107.4375 46.6875 107.4375 C47.03637983 119.47385419 47.01056963 129.10445288 42.6875 140.4375 C42.39875 141.21480469 42.11 141.99210938 41.8125 142.79296875 C38.58372705 150.24509203 32.37955472 156.37974745 24.91162109 159.55932617 C16.80880539 162.75864868 9.52506636 163.96297074 0.8125 163.875 C-0.24598145 163.86670166 -1.30446289 163.85840332 -2.39501953 163.84985352 C-14.48209125 163.58806323 -24.20185443 160.67971315 -33.3125 152.4375 C-45.95941348 138.21275662 -46.63225144 119.9026385 -46.61328125 101.796875 C-46.61718325 100.21950165 -46.62152091 98.64212933 -46.62626648 97.0647583 C-46.63367345 93.77702411 -46.63347854 90.4893974 -46.62817383 87.20166016 C-46.62239476 83.03900965 -46.63929947 78.87680637 -46.6625185 74.71422958 C-46.67742733 71.46062758 -46.67810445 68.20712897 -46.67500877 64.95349884 C-46.6755137 63.42127855 -46.68059067 61.88905115 -46.69082069 60.35686493 C-46.73859729 52.20120839 -46.3524823 44.32771384 -44.96557617 36.27832031 C-44.78877178 35.24465395 -44.78877178 35.24465395 -44.60839558 34.19010544 C-42.66173068 23.93225489 -37.57981962 14.02918208 -29.0625 7.7890625 C-19.833316 1.8766165 -10.88053786 -0.11483898 0 0 Z " fill="#FBFBFB" transform="translate(1438.3125,877.5625)"/>
<path d="M0 0 C8.60578207 5.04421309 14.17233662 11.69275338 17.0859375 21.22265625 C19.03923129 28.85927842 19.36203797 36.16064067 19.31298828 44.01611328 C19.31328033 45.25627701 19.31357239 46.49644073 19.31387329 47.77418518 C19.31272638 51.14341878 19.30276087 54.51240116 19.28872538 57.88159037 C19.2761433 61.41428784 19.27504167 64.94698938 19.27267456 68.47970581 C19.26648161 75.15531438 19.25010067 81.83085671 19.22997558 88.50643623 C19.2075482 96.11231817 19.19660602 103.71820344 19.18658471 111.32411027 C19.16573226 126.95700371 19.12908366 142.58980602 19.0859375 158.22265625 C9.1859375 158.22265625 -0.7140625 158.22265625 -10.9140625 158.22265625 C-10.9234082 154.6596875 -10.93275391 151.09671875 -10.94238281 147.42578125 C-10.97616628 135.64713158 -11.03152275 123.86863763 -11.09796524 112.09013367 C-11.13771948 104.94957112 -11.17013022 97.8091182 -11.18505859 90.66845703 C-11.19809399 84.44227409 -11.22510637 78.21633273 -11.26867557 71.99028587 C-11.29124861 68.69570306 -11.30489056 65.40148157 -11.30594635 62.10681152 C-11.30831428 58.42240262 -11.33538291 54.73893413 -11.36816406 51.0546875 C-11.3631337 49.97071182 -11.35810333 48.88673615 -11.35292053 47.76991272 C-11.43923799 41.48954455 -12.12920443 36.39886557 -15.9140625 31.22265625 C-20.5494445 27.77306965 -25.329626 27.48840627 -30.9140625 28.22265625 C-35.11275181 29.80882777 -37.01775621 32.25682695 -39.07619667 36.22787571 C-42.07147923 43.35900716 -42.21653371 50.81054533 -42.23291016 58.43383789 C-42.24295578 59.51779846 -42.2530014 60.60175903 -42.26335144 61.71856689 C-42.29404773 65.27331043 -42.31118091 68.82797911 -42.328125 72.3828125 C-42.34684754 74.85860329 -42.36642175 77.33438777 -42.3868103 79.81016541 C-42.43802265 86.30541252 -42.47770671 92.8006803 -42.51495361 99.29602051 C-42.55506164 105.93242613 -42.60612291 112.56874127 -42.65625 119.20507812 C-42.75288031 132.21088348 -42.83631325 145.21672431 -42.9140625 158.22265625 C-52.8140625 158.22265625 -62.7140625 158.22265625 -72.9140625 158.22265625 C-72.9140625 106.41265625 -72.9140625 54.60265625 -72.9140625 1.22265625 C-63.0140625 1.22265625 -53.1140625 1.22265625 -42.9140625 1.22265625 C-42.5840625 5.18265625 -42.2540625 9.14265625 -41.9140625 13.22265625 C-41.38039063 12.55878906 -40.84671875 11.89492188 -40.296875 11.2109375 C-29.98974404 -1.00426096 -15.62025346 -6.4336293 0 0 Z " fill="#FEFEFE" transform="translate(1236.9140625,879.77734375)"/>
<path d="M0 0 C10.23 0 20.46 0 31 0 C31 16.83 31 33.66 31 51 C39.58 51 48.16 51 57 51 C57 60.24 57 69.48 57 79 C48.42 79 39.84 79 31 79 C31.06302065 90.7096545 31.13851828 102.41904874 31.23571491 114.12847042 C31.28035864 119.56618187 31.31962804 125.00381944 31.34643555 130.44165039 C31.37252825 135.69376847 31.41297298 140.94560129 31.46318626 146.19754219 C31.47981464 148.19685875 31.49135392 150.1962246 31.49761391 152.19560051 C31.50729889 155.00562001 31.53541045 157.81491633 31.56762695 160.62475586 C31.56619186 161.44331558 31.56475677 162.26187531 31.5632782 163.10523987 C31.65308013 168.67793676 32.44331993 173.97853676 35 179 C39.10681029 181.73787352 42.17621391 181.49104409 47 181 C49.85058406 180.36134455 52.62628605 179.59993975 55.421875 178.75390625 C57.93388961 178.01933228 60.42789221 177.47648759 63 177 C63.4098345 180.99588633 63.71599311 184.99331823 64 189 C64.11472656 190.23363281 64.22945312 191.46726562 64.34765625 192.73828125 C64.87799849 201.86981045 64.87799849 201.86981045 62.53125 204.890625 C60.35427932 206.32466124 58.47601057 207.15749417 56 208 C55.35844971 208.25096436 54.71689941 208.50192871 54.0559082 208.76049805 C48.31003134 210.89695573 43.16979759 211.51024783 37.0625 211.4375 C36.18513184 211.43137695 35.30776367 211.42525391 34.40380859 211.41894531 C27.92461582 211.26235579 22.64909255 210.33598675 17 207 C15.9275 206.443125 14.855 205.88625 13.75 205.3125 C4.59173411 197.61123095 1.29992582 186.23437104 0.20347786 174.7078743 C-0.10690165 170.57735757 -0.13138118 166.46800325 -0.11352539 162.32763672 C-0.11367142 161.41909439 -0.11381744 160.51055206 -0.1139679 159.57447815 C-0.11327832 156.60952255 -0.10553126 153.64463195 -0.09765625 150.6796875 C-0.09578867 148.60889724 -0.09436637 146.53810654 -0.09336853 144.46731567 C-0.08957014 139.04556027 -0.079763 133.62383212 -0.06866455 128.2020874 C-0.05839257 122.65816618 -0.05385856 117.11424051 -0.04882812 111.5703125 C-0.03813809 100.71352977 -0.0210942 89.85676716 0 79 C-5.28 79 -10.56 79 -16 79 C-16 69.76 -16 60.52 -16 51 C-10.72 51 -5.44 51 0 51 C0 34.17 0 17.34 0 0 Z " fill="#FCFCFC" transform="translate(907,830)"/>
<path d="M0 0 C6.19840119 5.12344371 11.85331268 10.71814972 17.52514648 16.41162109 C18.57028567 17.45704281 19.61564601 18.50224346 20.66120911 19.54724121 C23.48112929 22.36687602 26.29796869 25.18957008 29.11424136 28.01284742 C32.06459894 30.96948186 35.01781329 33.9232601 37.97071838 36.87734985 C43.55405203 42.46378408 49.13483296 48.05276117 54.71468836 53.64266932 C61.07066478 60.0098465 67.42950143 66.37416394 73.78857315 72.73824954 C86.86222104 85.82233299 99.9322948 98.90998143 113 112 C109.47455712 116.19140995 105.88539973 120.23861487 102.00439453 124.10913086 C101.54510056 124.56857086 101.08580658 125.02801086 100.6125946 125.50137329 C99.1216965 126.99158498 97.62730865 128.47824128 96.1328125 129.96484375 C95.08741675 131.00837079 94.04224425 132.05212152 92.99728394 133.09608459 C90.2672716 135.82230745 87.53426807 138.54551181 84.80059814 141.26806641 C82.00324846 144.05512459 79.20878299 146.84507146 76.4140625 149.63476562 C70.94550306 155.09265081 65.47377555 160.54734559 60 166 C56.90820864 164.6238464 54.80361247 163.04841555 52.42480469 160.65185547 C51.40419952 159.63102371 51.40419952 159.63102371 50.36297607 158.58956909 C49.63991272 157.85618317 48.91684937 157.12279724 48.171875 156.3671875 C47.42286926 155.61535187 46.67386353 154.86351624 45.90216064 154.08889771 C43.5133698 151.68892099 41.13163103 149.28207991 38.75 146.875 C37.13066831 145.24563648 35.51088198 143.61672466 33.890625 141.98828125 C29.92179495 137.99741194 25.95873101 134.00088585 22 130 C23.67465846 126.37409493 25.60476458 124.44441943 28.625 121.8125 C31.66859508 118.8083042 33.68347784 116.79344781 34 112.4375 C32.90557142 105.11406821 26.90942993 100.64145443 21.3806591 96.24140739 C-0.31616953 78.92814055 -0.31616953 78.92814055 -2.11816406 64.94824219 C-2.9557425 55.94590978 -2.4164447 46.90929965 -1.78527832 37.91113281 C-1.51425418 33.62263499 -1.39953983 29.32983102 -1.26953125 25.03515625 C-0.99453339 16.67874041 -0.55405696 8.3425535 0 0 Z " fill="#0C0C0D" transform="translate(598,765)"/>
<path d="M0 0 C1.54300781 -0.03867187 1.54300781 -0.03867187 3.1171875 -0.078125 C6.69141464 0.31179069 8.34296346 0.96783121 11.125 3.25 C11.69262695 6.4362793 11.69262695 6.4362793 11.61328125 10.32421875 C11.60620651 11.0080513 11.59913177 11.69188385 11.59184265 12.3964386 C11.56388004 14.57791159 11.50115064 16.75680494 11.4375 18.9375 C11.41241897 20.4172806 11.38960544 21.89710149 11.36914062 23.37695312 C11.31405135 27.00213863 11.22777108 30.62581753 11.125 34.25 C10.14225098 33.93276978 10.14225098 33.93276978 9.13964844 33.60913086 C1.44148859 31.19761646 -5.6684814 29.33794609 -13.3125 32.8125 C-19.78269473 38.96707547 -21.88547976 46.65624157 -22.1534729 55.38806152 C-22.176786 57.3439015 -22.18962162 59.29988502 -22.19384766 61.25585938 C-22.20389328 62.32992035 -22.2139389 63.40398132 -22.22428894 64.5105896 C-22.25502322 68.03830461 -22.27212908 71.56594405 -22.2890625 75.09375 C-22.30778197 77.54854986 -22.32735596 80.00334334 -22.3477478 82.45812988 C-22.39899251 88.90242749 -22.43865933 95.34674593 -22.47589111 101.7911377 C-22.51597875 108.37383142 -22.56704939 114.95643901 -22.6171875 121.5390625 C-22.71385617 134.44265373 -22.79727436 147.34628075 -22.875 160.25 C-32.775 160.25 -42.675 160.25 -52.875 160.25 C-52.875 108.44 -52.875 56.63 -52.875 3.25 C-42.975 3.25 -33.075 3.25 -22.875 3.25 C-22.545 7.21 -22.215 11.17 -21.875 15.25 C-21.029375 13.868125 -20.18375 12.48625 -19.3125 11.0625 C-14.44511548 3.73835505 -8.91677971 0.13341815 0 0 Z " fill="#FEFEFE" transform="translate(1559.875,877.75)"/>
<path d="M0 0 C5.88975426 5.08660595 8.40600873 10.93219284 9.00396729 18.65510559 C9.00555847 19.78188217 9.00714966 20.90865875 9.00878906 22.06958008 C9.01509338 23.35814407 9.02139771 24.64670807 9.02789307 25.97431946 C9.02431167 27.36439146 9.02020931 28.7544622 9.015625 30.14453125 C9.01697478 31.59030726 9.01891791 33.03608283 9.02142334 34.4818573 C9.02436272 37.50528301 9.02011723 40.5285901 9.01074219 43.55200195 C8.99937909 47.4015571 9.00589461 51.25083231 9.01788712 55.10037708 C9.02516424 58.08520052 9.02279062 61.06995923 9.01763153 64.05478477 C9.01630955 65.47276532 9.01789105 66.89075199 9.02259064 68.30872536 C9.07941489 90.27908589 9.07941489 90.27908589 2.75 99.375 C-0.76072498 102.7185476 -3.52036909 103.64775047 -8.25 103.875 C-13.00929863 103.6320328 -15.78527684 102.83972316 -19.25 99.375 C-24.42204872 90.89083082 -23.81787817 81.39387291 -23.74609375 71.8359375 C-23.74624902 70.14303526 -23.7477427 68.45013266 -23.75050354 66.75723267 C-23.75188131 63.22536322 -23.73943203 59.69390294 -23.71655273 56.16210938 C-23.68812613 51.65206065 -23.69092559 47.14268849 -23.70364285 42.63258934 C-23.71062061 39.14255059 -23.7027876 35.65266627 -23.69038582 32.16264725 C-23.68589475 30.5001955 -23.68551385 28.83772705 -23.68945122 27.1752739 C-23.69238535 24.84746429 -23.6757548 22.52056512 -23.65405273 20.19287109 C-23.64864975 18.87290131 -23.64324677 17.55293152 -23.63768005 16.19296265 C-23.04828246 10.38843911 -21.54599349 5.9368383 -17.8125 1.4375 C-12.57516019 -2.77791985 -5.94175902 -2.97087951 0 0 Z " fill="#0F0F0F" transform="translate(1331.25,908.625)"/>
<path d="M0 0 C6.90440138 7.0961903 9.60338191 13.54643079 9.63061523 23.40844727 C9.42079991 32.20487561 6.19749338 37.77159802 -0.0625 43.75 C-6.5237687 49.01907415 -12.43347148 51.04532493 -20.80859375 50.7890625 C-28.67297135 49.51488711 -35.85722505 45.42630832 -40.640625 39.0390625 C-45.44754507 31.55787 -46.75476764 24.10717201 -45.75 15.3125 C-43.3829418 7.46079474 -38.45359275 1.88761977 -31.75 -2.6875 C-20.91108779 -8.32525294 -10.04986007 -6.16695959 0 0 Z " fill="#9527E7" transform="translate(600.75,661.6875)"/>
<path d="M0 0 C11.88 0 23.76 0 36 0 C46.55405884 21.10811769 46.55405884 21.10811769 45 26 C44.11811598 27.84297301 43.16270532 29.65167833 42.15625 31.4296875 C41.57319092 32.46617432 40.99013184 33.50266113 40.3894043 34.57055664 C39.76590088 35.66102295 39.14239746 36.75148926 38.5 37.875 C37.86940674 38.9880249 37.23881348 40.1010498 36.58911133 41.24780273 C33.00667309 47.54918224 29.39278582 53.83244241 25.6875 60.0625 C25.32140625 60.68044434 24.9553125 61.29838867 24.578125 61.93505859 C23.74875147 63.30860765 22.87942661 64.65794698 22 66 C21.67 66 21.34 66 21 66 C20.95065601 60.05518819 20.91430718 54.11049491 20.89013672 48.16552734 C20.88006329 46.14206873 20.86640405 44.11862472 20.84912109 42.09521484 C20.82493153 39.19104411 20.81353051 36.28706539 20.8046875 33.3828125 C20.79436493 32.47443634 20.78404236 31.56606018 20.77340698 30.63015747 C20.77325592 29.78943695 20.77310486 28.94871643 20.77294922 28.08251953 C20.768508 27.34083527 20.76406677 26.599151 20.75949097 25.83499146 C21 24 21 24 23 22 C23.25003964 18.45821402 23.25003964 18.45821402 23 15 C21.82963695 13.60712194 21.82963695 13.60712194 18.5625 13.8125 C14.94967279 13.60435072 14.94967279 13.60435072 13 16 C13.16417032 19.56592619 13.16417032 19.56592619 14 23 C14.66 23.33 15.32 23.66 16 24 C16 37.86 16 51.72 16 66 C13.34779604 63.34779604 11.95885742 61.4186388 10.1796875 58.203125 C9.64811035 57.25115234 9.1165332 56.29917969 8.56884766 55.31835938 C8.00987793 54.30580078 7.4509082 53.29324219 6.875 52.25 C2.16586567 43.71809349 2.16586567 43.71809349 -2.890625 35.390625 C-3.31456543 34.72256836 -3.73850586 34.05451172 -4.17529297 33.36621094 C-4.94999439 32.16111984 -5.73977171 30.96552817 -6.54736328 29.78222656 C-8.38077317 26.91186693 -9.00065702 25.11156182 -8.98046875 21.68359375 C-7.74935598 17.0583374 -5.95613173 12.89075534 -3.9375 8.5625 C-2.638125 5.736875 -1.33875 2.91125 0 0 Z " fill="#5909F5" transform="translate(567,1127)"/>
<path d="M0 0 C5.71726871 3.32045872 9.95298788 7.90446804 12.3125 14.125 C13.46490909 22.19186364 12.11508652 28.02955118 8.0625 35 C2.91761514 39.88104461 -2.87939693 42.59770252 -10 42.875 C-16.72035684 42.53328694 -21.16785385 40.22536 -26.1875 35.875 C-30.97946482 30.2615555 -32.71371864 25.85604522 -32.58984375 18.46484375 C-31.94320573 11.98670649 -29.366111 7.49110456 -24.375 3.3125 C-16.99054469 -2.00430782 -8.60931075 -4.06687441 0 0 Z " fill="#121212" transform="translate(1558.375,776.6875)"/>
<path d="M0 0 C4.89519925 4.19588507 6.51019104 7.9141691 7.625 14.25 C7.84489098 17.5899294 7.81680085 20.90481907 7.75 24.25 C7.74097656 25.12011719 7.73195313 25.99023438 7.72265625 26.88671875 C7.69934619 29.0079342 7.66348579 31.12900562 7.625 33.25 C3.23111864 34.25871032 -1.1653952 35.25544344 -5.5625 36.25 C-6.80837891 36.53617188 -8.05425781 36.82234375 -9.33789062 37.1171875 C-10.53994141 37.38789062 -11.74199219 37.65859375 -12.98046875 37.9375 C-14.08543701 38.18886719 -15.19040527 38.44023438 -16.32885742 38.69921875 C-19.0978135 39.19988116 -21.57131111 39.35950127 -24.375 39.25 C-24.46272579 34.91679605 -24.51563579 30.58382332 -24.5625 26.25 C-24.58763672 25.02925781 -24.61277344 23.80851563 -24.63867188 22.55078125 C-24.7061402 14.22968823 -24.43240013 7.93455913 -18.9375 1.3125 C-13.56017157 -3.01559362 -6.00145016 -3.11186304 0 0 Z " fill="#0D0D0D" transform="translate(1447.375,908.75)"/>
<path d="M0 0 C5.71726871 3.32045872 9.95298788 7.90446804 12.3125 14.125 C13.46490909 22.19186364 12.11508652 28.02955118 8.0625 35 C2.91761514 39.88104461 -2.87939693 42.59770252 -10 42.875 C-16.72035684 42.53328694 -21.16785385 40.22536 -26.1875 35.875 C-30.97946482 30.2615555 -32.71371864 25.85604522 -32.58984375 18.46484375 C-31.94320573 11.98670649 -29.366111 7.49110456 -24.375 3.3125 C-16.99054469 -2.00430782 -8.60931075 -4.06687441 0 0 Z M-24.75 8.875 C-29.15932182 14.3571782 -29.01822334 19.40011392 -28.375 26.3125 C-26.05526575 31.21963015 -22.65723069 34.1236048 -18.375 37.3125 C-12.7917827 39.17357243 -7.24545437 38.84246207 -1.625 37.25 C2.86835792 34.57126739 6.27228454 31.01793091 8.625 26.3125 C9.36331412 18.54600339 8.39221385 12.67803035 3.3125 6.5 C-1.47076046 2.60664846 -6.12597036 1.88866186 -12.140625 2.0703125 C-17.6449738 2.66693772 -21.17909766 4.80366242 -24.75 8.875 Z " fill="#ECECEC" transform="translate(1558.375,776.6875)"/>
<path d="M0 0 C3.96 0 7.92 0 12 0 C16 4 16 4 16.4375 6.5625 C15.93493775 9.36248966 15.19653565 10.26107595 13 12 C13.309375 12.495 13.61875 12.99 13.9375 13.5 C15.41644382 16.97986781 15.62402851 20.24028509 16 24 C15.01 24 14.02 24 13 24 C12.85304688 23.44570313 12.70609375 22.89140625 12.5546875 22.3203125 C11.85614134 20.06408869 11.15091434 18.06574368 10 16 C6.95978632 14.40004618 6.95978632 14.40004618 4 14 C4 17.63 4 21.26 4 25 C2.68 25 1.36 25 0 25 C0 16.75 0 8.5 0 0 Z " fill="#D7D7D7" transform="translate(1541,785)"/>
<path d="M0 0 C2.0625 0.4375 2.0625 0.4375 4 1 C4.6875 4.3125 4.6875 4.3125 5 8 C3.5625 9.9375 3.5625 9.9375 2 11 C2.309375 11.495 2.61875 11.99 2.9375 12.5 C4.41644382 15.97986781 4.62402851 19.24028509 5 23 C4.01 23 3.02 23 2 23 C1.85304688 22.44570313 1.70609375 21.89140625 1.5546875 21.3203125 C0.85614134 19.06408869 0.15091434 17.06574368 -1 15 C-4.04021368 13.40004618 -4.04021368 13.40004618 -7 13 C-7 12.01 -7 11.02 -7 10 C-4.36 9.67 -1.72 9.34 1 9 C0.84402344 8.43410156 0.68804688 7.86820313 0.52734375 7.28515625 C0.23537109 6.18494141 0.23537109 6.18494141 -0.0625 5.0625 C-0.35833984 3.96615234 -0.35833984 3.96615234 -0.66015625 2.84765625 C-0.77230469 2.23792969 -0.88445312 1.62820313 -1 1 C-0.67 0.67 -0.34 0.34 0 0 Z " fill="#E2E2E2" transform="translate(1552,786)"/>
<path d="M0 0 C2.875 -0.125 2.875 -0.125 6 0 C8 2 8 2 8.125 5.125 C8.08375 6.07375 8.0425 7.0225 8 8 C5.29120665 9.35439668 2.99066732 9.06501451 0 9 C0 6.03 0 3.06 0 0 Z " fill="#141414" transform="translate(1545,787)"/>
</svg>
