<?xml version="1.0" encoding="UTF-8"?>
<svg version="1.1" xmlns="http://www.w3.org/2000/svg" width="2000" height="2000">
<path d="M0 0 C660 0 1320 0 2000 0 C2000 660 2000 1320 2000 2000 C1340 2000 680 2000 0 2000 C0 1340 0 680 0 0 Z " fill="#FEFEFE" transform="translate(0,0)"/>
<path d="M0 0 C5.58990517 2.69765811 10.06651259 6.63368709 14.38414001 11.01664734 C14.97421784 11.60345632 15.56429566 12.1902653 16.17225462 12.79485637 C18.12843836 14.74381376 20.07379269 16.70321856 22.01928711 18.6628418 C23.4270573 20.06982038 24.83548137 21.47614497 26.24450684 22.88186646 C30.05453746 26.68677965 33.8551997 30.50092523 37.65408015 34.31696677 C41.6323427 38.31029639 45.61874024 42.29548948 49.60414124 46.2816925 C56.28938715 52.97062582 62.96897838 59.66516233 69.64477539 66.36352539 C78.22190445 74.9695878 86.80833142 83.566311 95.39771175 92.16014385 C102.77885838 99.54526491 110.15573884 106.93464312 117.53193212 114.32471108 C119.90612758 116.70300911 122.28091233 119.08071753 124.65577507 121.45834923 C128.37893227 125.18638917 132.09942523 128.91706814 135.81783295 132.64984512 C137.18561469 134.02215938 138.55424869 135.39362478 139.92377663 136.7641964 C141.78643274 138.62859119 143.6459943 140.49601687 145.50474548 142.36430359 C146.05278129 142.91147291 146.6008171 143.45864224 147.16546005 144.02239245 C150.73240741 147.6170087 152.18737703 149.57613907 152.5 154.625 C152.46084178 160.05232906 150.61909735 162.49861799 146.875 166.2578125 C146.25625 166.83273437 145.6375 167.40765625 145 168 C144.113125 168.886875 143.22625 169.77375 142.3125 170.6875 C141.549375 171.450625 140.78625 172.21375 140 173 C139.401875 173.78375 138.80375 174.5675 138.1875 175.375 C136.28139419 177.66232698 134.44492123 179.39803315 132.1875 181.3125 C129.36754963 183.71545217 126.89136238 186.17085961 124.5 189 C121.54387942 192.49605128 118.32411812 195.39796895 114.8359375 198.3515625 C112.77897599 200.11891198 112.77897599 200.11891198 110.5 203 C107.87671496 206.14794205 105.04536855 208.61439532 101.9296875 211.25390625 C100.12850996 212.8837167 98.63421396 214.53981973 97.125 216.4375 C96.42375 217.283125 95.7225 218.12875 95 219 C94.34 219 93.68 219 93 219 C93 219.66 93 220.32 93 221 C92.34 221 91.68 221 91 221 C90.34 222.32 89.68 223.64 89 225 C88.34 225 87.68 225 87 225 C89.33978883 229.38355667 92.41463552 232.68092165 95.92431641 236.13549805 C96.518116 236.7279834 97.11191559 237.32046875 97.72370911 237.9309082 C99.67842793 239.87915993 101.6400224 241.82033716 103.6015625 243.76171875 C104.96302251 245.11690596 106.32396704 246.4726112 107.68441772 247.82881165 C111.26037819 251.39148969 114.84186914 254.94855118 118.42498779 258.50402832 C124.16850799 264.20436655 129.90525693 269.91150018 135.63883591 275.62183571 C137.6446088 277.61736441 139.65374735 279.60945859 141.66323853 281.60124207 C142.88709707 282.81827543 144.11084773 284.0354173 145.33447266 285.25268555 C145.8965593 285.80803482 146.45864594 286.36338409 147.0377655 286.93556213 C150.67458807 290.56158293 152.18308079 292.50675484 152.5 297.625 C152.5721875 298.44226563 152.644375 299.25953125 152.71875 300.1015625 C150.56987864 308.76711982 140.07815498 316.05763911 133.86401367 322.24951172 C132.75272481 323.36051797 131.64165716 324.47174553 130.53079224 325.58317566 C127.53546828 328.57878479 124.53708597 331.57131526 121.53811812 334.56327581 C118.3942394 337.70087117 115.25322309 340.84132948 112.1118927 343.98147583 C106.17017365 349.92009507 100.2259121 355.85616253 94.28071719 361.79130185 C87.51669056 368.54413632 80.75551526 375.29982256 73.99457586 382.05574775 C60.66306897 395.37724923 47.32833829 408.69551912 33.99130535 422.01148796 C32.66040257 423.34052382 31.32996965 424.67003035 30 426 C29.54109375 425.01 29.0821875 424.02 28.609375 423 C28.16549438 422.04540894 28.16549438 422.04540894 27.71264648 421.0715332 C27.0697532 419.68808164 26.42864511 418.30379912 25.78930664 416.91870117 C24.11527595 413.31063348 22.36665321 409.79293105 20.4375 406.3125 C19 403 19 403 19.64208984 401.07543945 C21.28666853 398.5618538 23.15836047 396.59989606 25.2890625 394.48046875 C26.14886719 393.62259766 27.00867188 392.76472656 27.89453125 391.88085938 C28.79558594 390.99205078 29.69664062 390.10324219 30.625 389.1875 C31.50285156 388.31029297 32.38070312 387.43308594 33.28515625 386.52929688 C37.80494089 382.03973368 42.39561021 377.70503561 47.2265625 373.55297852 C49.83428875 371.26942308 52.25228872 368.84220675 54.6875 366.375 C56.02361328 365.02535156 56.02361328 365.02535156 57.38671875 363.6484375 C58.24910156 362.77445313 59.11148438 361.90046875 60 361 C63.19430572 357.79442689 66.4050207 354.60562005 69.6171875 351.41796875 C71.3698604 349.67454827 73.12246256 347.93105665 74.875 346.1875 C75.74769531 345.32318359 76.62039063 344.45886719 77.51953125 343.56835938 C82.04853125 339.05638569 86.44341004 334.49568425 90.59887695 329.63598633 C92.30666194 327.64193385 94.03646003 325.74536886 96 324 C96.66 324 97.32 324 98 324 C98.2475 323.38125 98.495 322.7625 98.75 322.125 C100.20628639 319.64931313 101.37812506 319.04874998 104 318 C104 317.34 104 316.68 104 316 C105.3984375 314.625 105.3984375 314.625 107.375 313 C112.54143497 308.62056677 117.25777524 303.82968383 122 299 C117.00560623 292.97036604 111.59211706 287.45699026 106.04736328 281.93383789 C105.051202 280.93795919 104.05526186 279.94185924 103.05952454 278.94555664 C100.37418267 276.25992954 97.68578337 273.57738251 94.99679804 270.8954041 C92.18029848 268.08518386 89.36665747 265.27210448 86.55270386 262.45933533 C81.23188962 257.14162096 75.90853291 251.82645942 70.58424366 246.51222461 C64.5193571 240.45854106 58.45733223 234.40199531 52.39553857 228.34521496 C39.93352642 215.89363674 27.46794942 203.445633 15 191 C11.61798868 192.59213193 9.46644384 194.34788868 6.875 197.0625 C3.5763566 200.50429208 2.21403481 201.83254692 -2.625 202.5 C-6.38889784 202.45074081 -8.03629542 201.49134056 -10.77783203 198.95605469 C-11.4718512 198.31841187 -12.16587036 197.68076904 -12.88092041 197.02380371 C-16.26954362 193.7875363 -19.62128503 190.52145964 -22.9296875 187.203125 C-23.64609406 186.48767517 -24.36250061 185.77222534 -25.10061646 185.03509521 C-26.59923002 183.53715682 -28.09660298 182.03797629 -29.59277344 180.53759766 C-31.88623373 178.23873983 -34.18503743 175.94532145 -36.484375 173.65234375 C-37.94563359 172.19042504 -39.40658231 170.72819652 -40.8671875 169.265625 C-41.55360321 168.58123352 -42.24001892 167.89684204 -42.94723511 167.19171143 C-43.89930344 166.23491486 -43.89930344 166.23491486 -44.87060547 165.25878906 C-45.42827606 164.70032288 -45.98594666 164.14185669 -46.56051636 163.56646729 C-48.89599548 161.02496454 -49.95946573 159.2296942 -50.5625 155.8125 C-49.75370447 150.33066366 -47.03673834 147.68817231 -43 144 C-41.41388739 142.98172548 -39.82576486 141.96560826 -38.21008301 140.99493408 C-28.54983923 135.0783104 -19.9376252 127.92601384 -16 117 C-10.70370971 93.51280891 -13.6957395 66.84543794 -15 43 C-15.66 43 -16.32 43 -17 43 C-17 43.66 -17 44.32 -17 45 C-17.66 45 -18.32 45 -19 45 C-19.24310158 45.5678635 -19.48620316 46.13572701 -19.73667145 46.72079849 C-21.23989145 49.43279395 -23.02062327 51.27244296 -25.21325684 53.46722412 C-26.09660202 54.35620895 -26.9799472 55.24519379 -27.89006042 56.16111755 C-28.87126812 57.13843688 -29.85257959 58.11565203 -30.83398438 59.09277344 C-31.8659193 60.12741895 -32.89742838 61.16248934 -33.92854309 62.19795227 C-36.72751627 65.00604138 -39.53277678 67.80776955 -42.33947945 70.60813046 C-45.27370628 73.53729593 -48.20305281 76.4713354 -51.13317871 79.40460205 C-56.05247749 84.32753892 -60.97597763 89.24624441 -65.90185547 94.16259766 C-71.60306786 99.85291373 -77.29702306 105.55041546 -82.98728514 111.25168014 C-87.86941665 116.14287459 -92.75541862 121.03017701 -97.64470339 125.91422105 C-100.56658171 128.83297574 -103.48707859 131.7530782 -106.40409851 134.67668915 C-109.14431192 137.42266137 -111.88933601 140.16373021 -114.63821983 142.90102196 C-115.64858939 143.90873758 -116.65724343 144.91817647 -117.6640873 145.92941475 C-119.03369741 147.3044524 -120.41002887 148.67278568 -121.78674316 150.04071045 C-122.55660805 150.80982128 -123.32647293 151.57893211 -124.11966705 152.37134933 C-126 154 -126 154 -128 154 C-122.61158042 160.37130456 -116.84346789 166.29317045 -110.93383789 172.1796875 C-109.93752905 173.17571365 -108.94144159 174.17196127 -107.94555664 175.16841125 C-105.26440583 177.84984682 -102.58020181 180.52820642 -99.8954041 183.20598984 C-97.08157565 186.0135309 -94.27061349 188.82393888 -91.45933533 191.6340332 C-86.14563875 196.94463226 -80.82940016 202.2526789 -75.51222461 207.55979443 C-69.45456619 213.60624248 -63.3997759 219.65555919 -57.34521496 225.70510864 C-44.89997994 238.13991505 -32.45117995 250.57114641 -20 263 C-18.87369953 262.04031244 -17.74820223 261.0796822 -16.62304688 260.11865234 C-15.99619995 259.58380219 -15.36935303 259.04895203 -14.72351074 258.49789429 C-13.46132576 257.40093584 -12.2350115 256.26233252 -11.03125 255.1015625 C-8.29847664 252.46638819 -6.39051425 251.1105229 -2.6875 250.0625 C7.85477488 252.74273938 17.82642939 266.67394992 25.37133789 274.2409668 C27.58560051 276.46065714 29.80524635 278.67486599 32.02539062 280.88867188 C33.43521716 282.29915807 34.84473407 283.70995381 36.25390625 285.12109375 C36.91733536 285.78249863 37.58076447 286.4439035 38.26429749 287.12535095 C39.17676491 288.04254662 39.17676491 288.04254662 40.10766602 288.97827148 C40.64375992 289.51516098 41.17985382 290.05205048 41.73219299 290.60520935 C44.24038578 293.36462291 44.53440032 296.12942093 44.44970703 299.81152344 C43.20804651 305.85400168 37.12793585 310.0123985 32.36349487 313.36358643 C23.09145447 319.94743942 13.07675856 327.57247801 10.23413086 339.10791016 C7.60689185 355.81007369 8.77300044 373.2054948 10 390 C11.65 390 13.3 390 15 390 C15 392.97 15 395.94 15 399 C3.45 399 -8.1 399 -20 399 C-20 396.03 -20 393.06 -20 390 C-18.35 390 -16.7 390 -15 390 C-10.95636463 358.01048676 -10.95636463 358.01048676 -21.06710815 328.85943604 C-28.03820498 320.71908414 -36.25135606 313.79885111 -44.85131836 307.43701172 C-48.39153799 304.69695804 -49.78235764 303.23330668 -50.5625 298.8125 C-49.87355112 294.1429576 -48.22973475 292.39796196 -45.01953125 289.08984375 C-42.53855047 286.52248453 -40.28561064 283.74273276 -38 281 C-55.325 263.675 -55.325 263.675 -73 246 C-76.90872627 247.95436313 -78.88947826 249.65706177 -81.92041016 252.72509766 C-82.39570663 253.20331467 -82.87100311 253.68153168 -83.36070251 254.17424011 C-84.38816936 255.20929701 -85.41331981 256.2466574 -86.43638992 257.28606033 C-88.05397512 258.92921081 -89.67776066 260.56599799 -91.30331421 262.20126343 C-94.74950728 265.67028451 -98.1877875 269.14708351 -101.625 272.625 C-105.61476385 276.66190616 -109.60767434 280.6955901 -113.60908127 284.72095871 C-115.21190053 286.33678158 -116.80860075 287.95849121 -118.40518188 289.58047485 C-119.38261916 290.56517335 -120.36033616 291.54959429 -121.33837891 292.53369141 C-122.1923526 293.39813873 -123.04632629 294.26258606 -123.92617798 295.15322876 C-126 297 -126 297 -128 297 C-122.71815168 303.23484503 -117.08881662 309.0483053 -111.30102539 314.8125 C-110.3441249 315.76911776 -109.38744585 316.72595708 -108.43096924 317.68299866 C-105.85725275 320.25699976 -103.28048482 322.8279257 -100.70312047 325.39827347 C-98.00139966 328.09370439 -95.30254753 330.79200464 -92.6033783 333.48999023 C-87.50217778 338.58809395 -82.39843561 343.68364517 -77.29375499 348.77826405 C-71.47792883 354.58287756 -65.66497278 360.39036174 -59.85224545 366.19807816 C-47.90466763 378.13522901 -35.95352495 390.06880449 -24 402 C-25.45762113 405.08367051 -26.91622178 408.16687672 -28.375 411.25 C-28.7875 412.12269531 -29.2 412.99539063 -29.625 413.89453125 C-30.02460937 414.73886719 -30.42421875 415.58320312 -30.8359375 416.453125 C-31.20251465 417.22817383 -31.5690918 418.00322266 -31.94677734 418.80175781 C-32.94231004 420.87959193 -33.96308146 422.9425569 -35 425 C-38.69252287 423.45016418 -41.04595722 421.20550319 -43.86463928 418.389328 C-44.33963236 417.91745491 -44.81462543 417.44558181 -45.30401224 416.95940953 C-46.89244062 415.37895052 -48.47363379 413.79144836 -50.05493164 412.20385742 C-51.19308244 411.06841699 -52.33165821 409.93340241 -53.47062683 408.79878235 C-56.56196804 405.71656299 -59.64694412 402.62804533 -62.73055577 399.53809524 C-65.95860852 396.30498024 -69.19153675 393.07674646 -72.4236908 389.84773254 C-77.85190229 384.42316056 -83.27588141 378.99438342 -88.69750977 373.56323242 C-94.96376344 367.28609972 -101.23718217 361.01619712 -107.51438242 354.75001258 C-112.90414161 349.36933323 -118.28998845 343.98476111 -123.67259306 338.5969246 C-126.88711163 335.37928948 -130.1029626 332.16301731 -133.32234383 328.95024681 C-136.34986181 325.92851157 -139.37243492 322.90191517 -142.39128304 319.87151909 C-143.49933578 318.76082451 -144.60908906 317.65182343 -145.72066879 316.54465866 C-147.23923925 315.03156395 -148.75149859 313.51242536 -150.26234436 311.99162292 C-151.1098076 311.14340564 -151.95727083 310.29518835 -152.83041477 309.42126751 C-156.4146373 305.421258 -158.90671834 301.78330515 -158.6547699 296.20346069 C-157.78592592 293.27958843 -156.3538087 291.78589246 -154.27368164 289.55712891 C-153.04381027 288.23844818 -153.04381027 288.23844818 -151.78909302 286.89312744 C-146.56175815 281.44152646 -141.22343064 276.10185134 -135.87109375 270.7734375 C-134.62820288 269.53241651 -133.38553616 268.291171 -132.14308167 267.04971313 C-128.90512502 263.81553685 -125.6641747 260.58437742 -122.42254639 257.35388184 C-119.10211509 254.04376212 -115.7845863 250.73073608 -112.46679688 247.41796875 C-105.98066853 240.94249848 -99.49136717 234.47021828 -93 228 C-94.63200309 223.84050045 -97.66991135 221.07712255 -100.79492188 218.00976562 C-101.38696915 217.42063889 -101.97901642 216.83151215 -102.58900452 216.22453308 C-103.87288336 214.9482549 -105.15906725 213.67429224 -106.44728088 212.40238953 C-108.48582527 210.38938868 -110.51804183 208.37019107 -112.54870605 206.34924316 C-116.86025052 202.06054982 -121.17955677 197.77972613 -125.5 193.5 C-130.50661517 188.54056861 -135.5100041 183.57797321 -140.50502014 178.6068573 C-142.50740101 176.61744453 -144.51571057 174.63415043 -146.52429199 172.65100098 C-147.7515159 171.43104233 -148.97845978 170.21080189 -150.20507812 168.99023438 C-150.76514053 168.44050461 -151.32520294 167.89077484 -151.90223694 167.3243866 C-155.82813563 163.39956663 -157.65898647 160.79807133 -158.6875 155.375 C-158.55299062 151.31768053 -157.05262303 149.52018462 -154.3221283 146.5997467 C-153.49978636 145.71931765 -152.67744442 144.83888859 -151.83018303 143.93177986 C-146.34739606 138.22344633 -140.7595893 132.62086688 -135.15844727 127.02905273 C-133.78086566 125.65011351 -132.40349632 124.27096221 -131.02632141 122.89161682 C-127.31428739 119.17505483 -123.59913486 115.46162537 -119.88324475 111.74891925 C-115.98828203 107.85650012 -112.09577303 103.96162841 -108.2028656 100.06715393 C-101.67585817 93.53833236 -95.14675615 87.01161105 -88.61645508 80.48608398 C-81.06121567 72.936304 -73.50961002 65.38290371 -65.95984608 57.82764858 C-59.47065462 51.33392617 -52.97952539 44.84214558 -46.4867577 38.35199887 C-42.61140164 34.47820334 -38.73672816 30.6037316 -34.86380196 26.72750664 C-31.23071231 23.09153795 -27.59520358 19.45800584 -23.95777702 15.82637596 C-22.62092586 14.49085143 -21.28493304 13.15446708 -19.94984436 11.81718063 C-18.13381967 9.99844116 -16.31477184 8.18278163 -14.49488831 6.36790466 C-13.6957363 5.56540658 -13.6957363 5.56540658 -12.88043982 4.74669641 C-8.48065539 0.37051486 -6.31769543 -0.61138988 0 0 Z " fill="#7719F3" transform="translate(588,722)"/>
<path d="M0 0 C3.76271224 1.13656674 7.0003962 1.32909545 10.92724609 1.42333984 C11.62902985 1.44270599 12.3308136 1.46207214 13.05386353 1.48202515 C15.27455858 1.54135303 17.49530682 1.58801651 19.71630859 1.63427734 C21.23065293 1.67250037 22.74497653 1.71155456 24.25927734 1.75146484 C27.9530969 1.84701469 31.6470733 1.93121671 35.34130859 2.00927734 C35.43629639 2.72543213 35.53128418 3.44158691 35.62915039 4.17944336 C37.6940326 19.65809452 39.95213215 35.07683773 42.48461914 50.48608398 C44.05813034 60.11081784 45.46894502 69.75037209 46.81518555 79.40917969 C48.2833932 89.83872148 49.95699771 100.23050689 51.67919922 110.62060547 C52.74204209 117.075763 53.69937309 123.49821728 54.34130859 130.00927734 C56.65948309 118.26090009 58.55766689 106.47314904 60.33010864 94.63153076 C60.7893547 91.5638308 61.25225479 88.4967006 61.71606445 85.4296875 C62.59371876 79.62327023 63.46783218 73.81632432 64.34130859 68.00927734 C66.62051725 52.86423135 69.02027834 37.74290755 71.52880859 22.63427734 C71.6615921 21.83221863 71.79437561 21.03015991 71.93118286 20.20379639 C72.30946154 17.92248588 72.69016657 15.64159506 73.07177734 13.36083984 C73.18514435 12.67669006 73.29851135 11.99254028 73.41531372 11.28765869 C73.9439228 8.14656479 74.56771055 5.10366951 75.34130859 2.00927734 C85.24130859 2.00927734 95.14130859 2.00927734 105.34130859 2.00927734 C104.21628011 14.38459071 104.21628011 14.38459071 103.34356689 19.36489868 C103.14747833 20.4966301 102.95138977 21.62836151 102.74935913 22.79438782 C102.42990829 24.59772835 102.42990829 24.59772835 102.10400391 26.4375 C101.87780365 27.73518814 101.65160339 29.03287628 101.41854858 30.36988831 C100.80258661 33.90252735 100.18104409 37.43416277 99.55827427 40.96560717 C98.9010814 44.69697138 98.24858338 48.42915697 97.59539795 52.16122437 C96.4955957 58.44087935 95.39222508 64.71989919 94.28662109 70.99853516 C93.02061784 78.18827149 91.75983127 85.37890682 90.50202489 92.57008135 C89.28058012 99.55280141 88.05565145 106.53490606 86.82912445 113.51673508 C86.31308203 116.45444423 85.79811676 119.39233887 85.28409576 122.33040237 C82.84992852 136.2358229 80.38050685 150.13359264 77.66455078 163.98730469 C77.37586561 165.48635062 77.37586561 165.48635062 77.08134842 167.01568031 C73.24971037 186.19185623 64.08329817 203.26364441 47.86865234 214.56396484 C45.10322046 216.14543285 42.38725565 217.0985878 39.34130859 218.00927734 C37.33418654 214.72190323 35.33683826 211.42869906 33.34130859 208.13427734 C32.76896484 207.19712891 32.19662109 206.25998047 31.60693359 205.29443359 C31.06552734 204.39853516 30.52412109 203.50263672 29.96630859 202.57958984 C29.46357422 201.75217285 28.96083984 200.92475586 28.44287109 200.07226562 C27.34130859 198.00927734 27.34130859 198.00927734 27.34130859 196.00927734 C28.8266516 194.95728391 30.35684036 193.96835154 31.90380859 193.00927734 C43.95606053 184.75851364 47.3064348 172.6662094 50.34130859 159.00927734 C44.07130859 159.00927734 37.80130859 159.00927734 31.34130859 159.00927734 C28.61453329 145.78354871 26.28191729 132.49988623 23.96630859 119.19677734 C23.53959949 116.75346241 23.1126732 114.31018539 22.68554688 111.86694336 C21.99663687 107.92615415 21.30779431 103.98535362 20.61972046 100.04441833 C17.79332383 83.85837197 14.94769599 67.67570372 12.10321045 51.49282837 C11.22091646 46.47320603 10.3389309 41.45352953 9.45703125 36.43383789 C9.31838905 35.6447019 9.17974686 34.85556591 9.03690338 34.04251671 C8.76656287 32.5037652 8.49622289 30.9650136 8.22588348 29.4262619 C7.26444037 23.95391933 6.30286196 18.48160054 5.34130859 13.00927734 C5.01130859 19.60927734 4.68130859 26.20927734 4.34130859 33.00927734 C1.37130859 32.01927734 -1.59869141 31.02927734 -4.65869141 30.00927734 C-10.22394833 29.27648551 -15.02785637 29.25210394 -20.15869141 31.63427734 C-27.24024365 38.36175197 -28.63824072 45.87314756 -28.93716431 55.34988403 C-28.96035029 57.28329405 -28.97329121 59.21684626 -28.97753906 61.15039062 C-28.98758469 62.21499008 -28.99763031 63.27958954 -29.00798035 64.37644958 C-29.03862813 67.86082467 -29.0557961 71.34512358 -29.07275391 74.82958984 C-29.09148036 77.25911099 -29.11105486 79.68862574 -29.13143921 82.11813354 C-29.18261019 88.48677788 -29.22231623 94.85544327 -29.25958252 101.22418213 C-29.29971665 107.73332869 -29.35076596 114.24238881 -29.40087891 120.75146484 C-29.49746016 133.50401412 -29.5809119 146.25659952 -29.65869141 159.00927734 C-39.55869141 159.00927734 -49.45869141 159.00927734 -59.65869141 159.00927734 C-59.65869141 107.19927734 -59.65869141 55.38927734 -59.65869141 2.00927734 C-49.75869141 2.00927734 -39.85869141 2.00927734 -29.65869141 2.00927734 C-29.32869141 6.29927734 -28.99869141 10.58927734 -28.65869141 15.00927734 C-27.97806641 13.81302734 -27.29744141 12.61677734 -26.59619141 11.38427734 C-23.26341541 6.07443084 -19.42090209 2.30222702 -13.72119141 -0.36572266 C-8.92222736 -1.34510307 -4.64644507 -1.73143013 0 0 Z " fill="#050505" transform="translate(1045.65869140625,878.99072265625)"/>
<path d="M0 0 C9.9 0 19.8 0 30 0 C30 67.65 30 135.3 30 205 C20.1 205 10.2 205 0 205 C-0.495 199.06 -0.495 199.06 -1 193 C-1.70125 194.216875 -2.4025 195.43375 -3.125 196.6875 C-6.36417384 201.82832365 -9.48828605 204.98565398 -15.25 207.3125 C-24.9394607 209.08890113 -35.53938886 208.3831259 -44.39453125 203.74609375 C-55.53577718 195.92804928 -59.70416565 183.93080873 -62 171 C-62.25199781 168.0969289 -62.2745159 165.21865866 -62.25878906 162.3059082 C-62.2622937 161.48827499 -62.26579834 160.67064178 -62.26940918 159.82823181 C-62.27813786 157.15232592 -62.27240614 154.47668937 -62.265625 151.80078125 C-62.26697484 149.91904144 -62.26891803 148.03730198 -62.27142334 146.15556335 C-62.27436319 142.21931627 -62.27011614 138.28316027 -62.26074219 134.34692383 C-62.2493878 129.33872565 -62.25588892 124.33074285 -62.26788712 119.32255268 C-62.2751703 115.43684821 -62.27278772 111.55119339 -62.26763153 107.66548729 C-62.26631077 105.82098553 -62.26788661 103.97647904 -62.27259064 102.1319828 C-62.34099312 67.75779278 -62.34099312 67.75779278 -50.78515625 54.44921875 C-44.24268651 48.33172995 -38.00471795 45.53599512 -29 45 C-28.05640625 44.92394531 -27.1128125 44.84789062 -26.140625 44.76953125 C-18.89732289 44.42942696 -13.67524745 45.3005362 -8 50 C-5.21171186 53.0765289 -2.8581074 56.28378521 -1 60 C-0.67 40.2 -0.34 20.4 0 0 Z " fill="#060606" transform="translate(1340,833)"/>
<path d="M0 0 C1.22783203 0.34998047 1.22783203 0.34998047 2.48046875 0.70703125 C13.11954767 4.31936967 19.92798075 11.61654261 24.84375 21.51953125 C28.02660047 31.10034129 28.27101457 40.7408952 28.125 50.75 C28.08375 54.7925 28.0425 58.835 28 63 C18.1 63 8.2 63 -2 63 C-2.3125 52.4375 -2.3125 52.4375 -2.38793945 49.15014648 C-2.60713344 43.35243883 -3.35825333 39.16804426 -6 34 C-6.33 33.01 -6.66 32.02 -7 31 C-12.48932021 28.78091311 -18.12315511 28.21448113 -24 29 C-28.5292081 31.22342943 -30.91921446 33.43645899 -33 38 C-34.57451943 48.70650209 -34.36313524 60.02109291 -28.99609375 69.5625 C-23.55444887 76.20748317 -16.64737155 80.13487942 -9.25 84.3125 C3.29319533 91.59238315 13.09902734 98.51984128 21 111 C21.40863281 111.62003906 21.81726563 112.24007812 22.23828125 112.87890625 C31.38367664 128.66265814 31.74569224 152.57066425 27.7644043 169.8215332 C26.99482229 172.61313988 26.05304512 175.3036215 25 178 C24.69964844 178.78890625 24.39929688 179.5778125 24.08984375 180.390625 C19.62335853 190.52239233 12.13773895 196.04591227 2 200 C-12.87042046 205.13775935 -30.39071125 204.84026991 -45 199 C-54.85949776 193.82114147 -60.74552709 186.52407767 -64.1875 176.01171875 C-67.66889879 163.10711073 -67.16377279 150.26559618 -67 137 C-56.77 137 -46.54 137 -36 137 C-35.6875 149.125 -35.6875 149.125 -35.61206055 152.91455078 C-35.37527813 160.06641687 -34.8835988 165.1164012 -29.625 170.375 C-24.11814947 172.84358817 -18.93694594 172.72604689 -13 172 C-8.00860842 169.89836144 -6.10433317 167.06459666 -3.84008789 162.37646484 C-2.2935031 158.00144121 -2.42454302 153.65594388 -2.5 149.0625 C-2.48453125 148.12470703 -2.4690625 147.18691406 -2.453125 146.22070312 C-2.50629381 136.6569631 -5.51146876 129.82549202 -12.01025391 122.83544922 C-15.41126713 119.698171 -19.21146012 117.39849847 -23.1875 115.0625 C-24.87987143 114.02974789 -26.56998066 112.99327963 -28.2578125 111.953125 C-29.0715332 111.45232422 -29.88525391 110.95152344 -30.72363281 110.43554688 C-35.73028671 107.27819757 -40.4001762 103.72334334 -45 100 C-45.90363281 99.27296875 -46.80726563 98.5459375 -47.73828125 97.796875 C-58.13983588 88.98252056 -63.49078627 78.56146559 -65 65 C-65.31016534 59.91701334 -65.41396264 54.84124067 -65.4375 49.75 C-65.44765137 48.48317383 -65.45780273 47.21634766 -65.46826172 45.91113281 C-65.3373855 31.79493437 -62.41603862 19.77821419 -53 9 C-38.25604027 -2.54079915 -17.87148758 -5.19624765 0 0 Z " fill="#060606" transform="translate(853,838)"/>
<path d="M0 0 C2.56229305 2.09106674 4.2866583 4.18276029 6 7 C6.44601562 7.69351563 6.89203125 8.38703125 7.3515625 9.1015625 C15.43592147 23.23737145 14.39116387 40.29098326 14.1875 56 C14.17241135 58.04686505 14.15873041 60.09374097 14.14648438 62.140625 C14.11384367 67.0940249 14.06229727 72.04688798 14 77 C6.37723521 78.43847965 -1.24625289 79.87305593 -8.87068558 81.30266571 C-12.41106183 81.9666262 -15.95117577 82.63192407 -19.49072266 83.30029297 C-22.90714361 83.94536096 -26.32421065 84.58689668 -29.74175262 85.22599792 C-31.67873887 85.58917767 -33.61504028 85.9560038 -35.55133057 86.32287598 C-37.32271393 86.65321838 -37.32271393 86.65321838 -39.12988281 86.99023438 C-40.16912903 87.18564819 -41.20837524 87.38106201 -42.27911377 87.58239746 C-45 88 -45 88 -49 88 C-48.91787003 91.14680313 -48.80515698 94.29184074 -48.6875 97.4375 C-48.66494141 98.31599609 -48.64238281 99.19449219 -48.61914062 100.09960938 C-48.31789853 107.52111905 -47.36743359 114.22837044 -42.4375 120 C-37.45047031 124.0919218 -32.24046821 123.57102323 -26 123 C-21.96930092 121.23214953 -20.51479987 119.8165791 -18.1875 116.125 C-16.40382526 110.46562078 -16.40382526 110.46562078 -16 98 C-6.1 98 3.8 98 14 98 C14 113.69260714 13.72749 129.85136699 2.9609375 142.37109375 C-7.56277267 152.50434824 -21.17472364 154.43471325 -35.2578125 154.1796875 C-47.56908541 153.58854078 -58.74204435 150.63276134 -67.37109375 141.234375 C-77.64675601 127.13922197 -78.31639414 112.57222669 -78.30078125 95.76953125 C-78.30467891 94.00754192 -78.30901574 92.24555352 -78.31376648 90.48356628 C-78.32119225 86.80305935 -78.32096489 83.12264839 -78.31567383 79.44213867 C-78.30989676 74.7704156 -78.3267854 70.09909128 -78.3500185 65.42743397 C-78.36489317 61.79041827 -78.36560887 58.15349544 -78.36250877 54.5164547 C-78.36301554 52.79640606 -78.36812917 51.0763513 -78.37832069 49.35633278 C-78.46836177 32.03218598 -77.5883794 15.03519821 -65.25 1.625 C-47.93157249 -14.50361188 -18.81858368 -11.85232134 0 0 Z " fill="#050505" transform="translate(1471,887)"/>
<path d="M0 0 C9.07718298 4.95938805 12.99600427 12.11517662 16.203125 21.64453125 C18.20704216 30.08259421 18.14160406 38.70582693 18.11352539 47.33447266 C18.11367142 48.52586853 18.11381744 49.7172644 18.1139679 50.94476318 C18.1133947 54.17962276 18.10841401 57.41443785 18.10139394 60.64928865 C18.09510025 64.04185572 18.09455188 67.43442385 18.09336853 70.82699585 C18.09027283 77.23696118 18.0820834 83.64690924 18.07201904 90.056867 C18.06080293 97.36046419 18.05533365 104.66406224 18.05032361 111.96766591 C18.03989914 126.97845511 18.02157579 141.98922191 18 157 C8.1 157 -1.8 157 -12 157 C-12.0093457 153.43703125 -12.01869141 149.8740625 -12.02832031 146.203125 C-12.06210378 134.42447533 -12.11746025 122.64598138 -12.18390274 110.86747742 C-12.22365698 103.72691487 -12.25606772 96.58646195 -12.27099609 89.44580078 C-12.28403149 83.21961784 -12.31104387 76.99367648 -12.35461307 70.76762962 C-12.37718611 67.47304681 -12.39082806 64.17882532 -12.39188385 60.88415527 C-12.39425178 57.19974637 -12.42132041 53.51627788 -12.45410156 49.83203125 C-12.4490712 48.74805557 -12.44404083 47.6640799 -12.43885803 46.54725647 C-12.52988134 39.92449511 -13.49816698 35.65949925 -17 30 C-20.19729995 26.89958793 -23.20311883 26.75283165 -27.5 26.5625 C-30.98646556 26.67949549 -32.79485254 26.89524385 -35.9375 28.5 C-40.98260247 34.61527572 -43.09669494 40.98982204 -43.15821838 48.89118958 C-43.17290161 50.32769867 -43.17290161 50.32769867 -43.18788147 51.79322815 C-43.19363693 52.83188522 -43.1993924 53.8705423 -43.20532227 54.94067383 C-43.22017166 56.59499924 -43.22017166 56.59499924 -43.23532104 58.28274536 C-43.26688063 61.92415224 -43.29167168 65.56557215 -43.31640625 69.20703125 C-43.33698055 71.73337643 -43.35797715 74.25971821 -43.37937927 76.78605652 C-43.42891316 82.75345866 -43.47419121 88.72087838 -43.51740164 94.68832844 C-43.56684711 101.48399314 -43.62173804 108.27961046 -43.67708123 115.07522929 C-43.79077024 129.05011032 -43.89691878 143.02503691 -44 157 C-53.9 157 -63.8 157 -74 157 C-74 105.19 -74 53.38 -74 0 C-64.1 0 -54.2 0 -44 0 C-43.67 4.29 -43.34 8.58 -43 13 C-42.195625 11.80375 -41.39125 10.6075 -40.5625 9.375 C-30.40231773 -4.20401138 -15.15660809 -5.63080692 0 0 Z " fill="#040404" transform="translate(1238,881)"/>
<path d="M0 0 C6.19840119 5.12344371 11.85331268 10.71814972 17.52514648 16.41162109 C18.57028567 17.45704281 19.61564601 18.50224346 20.66120911 19.54724121 C23.48112929 22.36687602 26.29796869 25.18957008 29.11424136 28.01284742 C32.06459894 30.96948186 35.01781329 33.9232601 37.97071838 36.87734985 C43.55405203 42.46378408 49.13483296 48.05276117 54.71468836 53.64266932 C61.07066478 60.0098465 67.42950143 66.37416394 73.78857315 72.73824954 C86.86222104 85.82233299 99.9322948 98.90998143 113 112 C109.47455712 116.19140995 105.88539973 120.23861487 102.00439453 124.10913086 C101.54510056 124.56857086 101.08580658 125.02801086 100.6125946 125.50137329 C99.1216965 126.99158498 97.62730865 128.47824128 96.1328125 129.96484375 C95.08741675 131.00837079 94.04224425 132.05212152 92.99728394 133.09608459 C90.2672716 135.82230745 87.53426807 138.54551181 84.80059814 141.26806641 C82.00324846 144.05512459 79.20878299 146.84507146 76.4140625 149.63476562 C70.94550306 155.09265081 65.47377555 160.54734559 60 166 C56.90820864 164.6238464 54.80361247 163.04841555 52.42480469 160.65185547 C51.40419952 159.63102371 51.40419952 159.63102371 50.36297607 158.58956909 C49.63991272 157.85618317 48.91684937 157.12279724 48.171875 156.3671875 C47.42286926 155.61535187 46.67386353 154.86351624 45.90216064 154.08889771 C43.5133698 151.68892099 41.13163103 149.28207991 38.75 146.875 C37.13066831 145.24563648 35.51088198 143.61672466 33.890625 141.98828125 C29.92179495 137.99741194 25.95873101 134.00088585 22 130 C23.59213193 126.61798868 25.34788868 124.46644384 28.0625 121.875 C31.50429208 118.5763566 32.83254692 117.21403481 33.5 112.375 C33.36960092 106.67879057 29.9251403 103.80662116 26 100 C24.46697972 98.7383806 22.93277934 97.47793729 21.37956047 96.24127007 C-0.31742424 78.91840647 -0.31742424 78.91840647 -2.11816406 64.94824219 C-2.9557425 55.94590978 -2.4164447 46.90929965 -1.78527832 37.91113281 C-1.51425418 33.62263499 -1.39953983 29.32983102 -1.26953125 25.03515625 C-0.99453339 16.67874041 -0.55405696 8.3425535 0 0 Z " fill="#FEFDFE" transform="translate(598,765)"/>
<path d="M0 0 C9.9 0 19.8 0 30 0 C30 16.83 30 33.66 30 51 C38.91 51 47.82 51 57 51 C57 60.24 57 69.48 57 79 C48.09 79 39.18 79 30 79 C30.08570474 90.30118035 30.17955962 101.60221394 30.28752708 112.90320396 C30.33734671 118.1514258 30.38367747 123.3996289 30.421875 128.64794922 C30.45890953 133.71847061 30.50531758 138.78882953 30.55806351 143.85921097 C30.57651133 145.78793089 30.59165425 147.7166855 30.60334396 149.64545822 C29.92726142 165.26691416 29.92726142 165.26691416 34.74609375 179.59375 C39.3684536 182.47771802 44.77333781 181.61075603 50 181 C53.06497153 180.13913633 55.92400948 179.11110581 58.85546875 177.875 C61 177 61 177 63 177 C64.16711095 185.66996704 64.09744014 194.27369392 64 203 C62.14985947 203.96608323 60.29466527 204.9224907 58.4375 205.875 C57.40496094 206.40867187 56.37242187 206.94234375 55.30859375 207.4921875 C44.90764892 212.23216944 32.04004554 212.92296238 21.1796875 209.046875 C12.34535443 204.80386199 6.64347705 197.9872434 3 189 C0.32126487 180.07616642 -0.15374046 170.79357623 -0.11352539 161.53295898 C-0.11367142 160.63431625 -0.11381744 159.73567352 -0.1139679 158.80979919 C-0.11327733 155.87187188 -0.10552543 152.93400984 -0.09765625 149.99609375 C-0.09578902 147.9462945 -0.09436656 145.8964948 -0.09336853 143.84669495 C-0.08956733 138.47588855 -0.07975773 133.10510959 -0.06866455 127.73431396 C-0.05839868 122.24410371 -0.05385986 116.75388898 -0.04882812 111.26367188 C-0.03813313 100.50910259 -0.02108577 89.75455358 0 79 C-5.28 79 -10.56 79 -16 79 C-16 69.76 -16 60.52 -16 51 C-10.72 51 -5.44 51 0 51 C0 34.17 0 17.34 0 0 Z " fill="#060606" transform="translate(907,830)"/>
<path d="M0 0 C0 10.23 0 20.46 0 31 C-2.97 30.01 -5.94 29.02 -9 28 C-14.56525692 27.26720816 -19.36916497 27.24282659 -24.5 29.625 C-31.58155224 36.35247463 -32.97954931 43.86387021 -33.2784729 53.34060669 C-33.30165889 55.2740167 -33.31459981 57.20756891 -33.31884766 59.14111328 C-33.32889328 60.20571274 -33.3389389 61.27031219 -33.34928894 62.36717224 C-33.37993673 65.85154733 -33.3971047 69.33584624 -33.4140625 72.8203125 C-33.43278896 75.24983365 -33.45236346 77.6793484 -33.4727478 80.1088562 C-33.52391879 86.47750054 -33.56362482 92.84616593 -33.60089111 99.21490479 C-33.64102525 105.72405135 -33.69207456 112.23311147 -33.7421875 118.7421875 C-33.83876875 131.49473677 -33.92222049 144.24732218 -34 157 C-43.9 157 -53.8 157 -64 157 C-64 105.19 -64 53.38 -64 0 C-54.1 0 -44.2 0 -34 0 C-33.67 4.29 -33.34 8.58 -33 13 C-32.319375 11.80375 -31.63875 10.6075 -30.9375 9.375 C-27.604724 4.06515349 -23.76221068 0.29294968 -18.0625 -2.375 C-10.39078195 -3.94065674 -7.35657854 -3.15281937 0 0 Z " fill="#040404" transform="translate(1571,881)"/>
<path d="M0 0 C4.79923273 3.42802338 6.88392035 7.59555046 8.22351074 13.26641846 C9.13367377 19.17998757 8.90977905 25.20940303 8.890625 31.1796875 C8.89197505 32.66887475 8.89391841 34.15806156 8.89642334 35.64724731 C8.89936044 38.75885236 8.89512398 41.87034204 8.88574219 44.98193359 C8.87436841 48.94467841 8.8809029 52.9071516 8.89288712 56.8698864 C8.90016116 59.94306432 8.89779218 63.01617932 8.89263153 66.08935928 C8.89130928 67.54920612 8.89289206 69.0090589 8.89759064 70.46889877 C8.92844596 82.75102511 8.90315754 92.64560647 0.5625 102.25 C-3.99189508 104.7694526 -8.29161598 104.59265422 -13.375 103.875 C-18.42032952 101.67340167 -20.25465712 98.82809226 -22.54014587 94.07493591 C-23.86508345 90.58357418 -23.93442043 87.35867068 -23.89257812 83.65820312 C-23.8995874 82.87984604 -23.90659668 82.10148895 -23.91381836 81.29954529 C-23.93128438 78.75140678 -23.91981702 76.20439789 -23.90625 73.65625 C-23.90894821 71.87080677 -23.91283336 70.08536498 -23.91784668 68.29992676 C-23.92372628 64.5678094 -23.91522865 60.83607639 -23.89648438 57.10400391 C-23.87369561 52.33596447 -23.88682699 47.56882584 -23.91077423 42.8008194 C-23.92527398 39.11689549 -23.92060715 35.43318282 -23.91026306 31.74925232 C-23.9076073 29.99189648 -23.91082476 28.23452105 -23.92018127 26.47718811 C-23.93041629 24.01487914 -23.91475081 21.55400017 -23.89257812 19.09179688 C-23.90472351 18.01767799 -23.90472351 18.01767799 -23.91711426 16.92185974 C-23.82802601 11.54319643 -22.31890746 7.38485647 -19.375 2.875 C-13.73899225 -2.49262643 -7.07304387 -2.35768129 0 0 Z " fill="#FCFCFC" transform="translate(1331.375,908.125)"/>
<path d="M0 0 C5.55824052 3.4107385 9.11847724 9.23695448 12 15 C13.31562684 32.30989024 13.31562684 32.30989024 8.609375 39.14453125 C2.77665748 45.8691449 -3.65784556 50.9015847 -12.59375 52.44921875 C-21.12005256 53.00048831 -28.40922675 49.78117797 -34.94921875 44.39453125 C-40.53454422 38.47155386 -43.18024832 31.04794761 -43.5625 23 C-43.23672374 14.81355774 -40.16552568 8.67855049 -34.1875 3.125 C-23.33443594 -5.42406163 -12.47319642 -6.61701917 0 0 Z " fill="#982AEA" transform="translate(598,660)"/>
<path d="M0 0 C11.88 0 23.76 0 36 0 C46.55405884 21.10811769 46.55405884 21.10811769 45 26 C44.11811598 27.84297301 43.16270532 29.65167833 42.15625 31.4296875 C41.57319092 32.46617432 40.99013184 33.50266113 40.3894043 34.57055664 C39.76590088 35.66102295 39.14239746 36.75148926 38.5 37.875 C37.86940674 38.9880249 37.23881348 40.1010498 36.58911133 41.24780273 C33.00667309 47.54918224 29.39278582 53.83244241 25.6875 60.0625 C25.32140625 60.68044434 24.9553125 61.29838867 24.578125 61.93505859 C23.74875147 63.30860765 22.87942661 64.65794698 22 66 C21.67 66 21.34 66 21 66 C20.95065601 60.05518819 20.91430718 54.11049491 20.89013672 48.16552734 C20.88006329 46.14206873 20.86640405 44.11862472 20.84912109 42.09521484 C20.82493153 39.19104411 20.81353051 36.28706539 20.8046875 33.3828125 C20.79436493 32.47443634 20.78404236 31.56606018 20.77340698 30.63015747 C20.77325592 29.78943695 20.77310486 28.94871643 20.77294922 28.08251953 C20.768508 27.34083527 20.76406677 26.599151 20.75949097 25.83499146 C21 24 21 24 23 22 C23.25003964 18.45821402 23.25003964 18.45821402 23 15 C21.82963695 13.60712194 21.82963695 13.60712194 18.5625 13.8125 C14.94967279 13.60435072 14.94967279 13.60435072 13 16 C13.16417032 19.56592619 13.16417032 19.56592619 14 23 C14.66 23.33 15.32 23.66 16 24 C16 37.86 16 51.72 16 66 C13.34779604 63.34779604 11.95885742 61.4186388 10.1796875 58.203125 C9.64811035 57.25115234 9.1165332 56.29917969 8.56884766 55.31835938 C8.00987793 54.30580078 7.4509082 53.29324219 6.875 52.25 C2.16586567 43.71809349 2.16586567 43.71809349 -2.890625 35.390625 C-3.31456543 34.72256836 -3.73850586 34.05451172 -4.17529297 33.36621094 C-4.94999439 32.16111984 -5.73977171 30.96552817 -6.54736328 29.78222656 C-8.38077317 26.91186693 -9.00065702 25.11156182 -8.98046875 21.68359375 C-7.74935598 17.0583374 -5.95613173 12.89075534 -3.9375 8.5625 C-2.638125 5.736875 -1.33875 2.91125 0 0 Z " fill="#5E0EFA" transform="translate(567,1127)"/>
<path d="M0 0 C5.57506977 3.23787283 10.32914557 7.88651832 12.1796875 14.20703125 C13.67795018 21.29092235 12.66297315 26.73047533 9.18359375 33.078125 C5.78106538 37.9559351 1.16349934 40.40838214 -4.375 42.3125 C-11.53634736 43.23309174 -17.41946921 42.49086784 -23.375 38.3125 C-27.75805676 34.51385081 -31.53180883 30.21483821 -32.375 24.3125 C-32.8641914 16.97462904 -31.88575768 11.29826589 -27.0625 5.5625 C-19.08293187 -1.11806867 -10.06549721 -4.75474916 0 0 Z " fill="#F8F8F8" transform="translate(1558.375,776.6875)"/>
<path d="M0 0 C4.96302838 4.96302838 6.73578053 9.63637006 6.890625 16.53125 C6.86432501 18.68784909 6.81704383 20.84428285 6.75 23 C6.73195313 24.10859375 6.71390625 25.2171875 6.6953125 26.359375 C6.6485115 29.07383296 6.58296375 31.78644716 6.5 34.5 C2.44426283 35.35961509 -1.61254649 36.21395467 -5.67041016 37.06347656 C-7.04994491 37.35305254 -8.42918123 37.6440541 -9.80810547 37.93652344 C-11.7931722 38.35729461 -13.77926488 38.7728833 -15.765625 39.1875 C-16.95961914 39.43886719 -18.15361328 39.69023438 -19.38378906 39.94921875 C-22.5 40.5 -22.5 40.5 -26.5 40.5 C-26.5879568 36.354303 -26.64071153 32.20884988 -26.6875 28.0625 C-26.71263672 26.89783203 -26.73777344 25.73316406 -26.76367188 24.53320312 C-26.83331622 16.29195583 -26.16240615 9.53655125 -21.5625 2.5625 C-15.83125558 -3.16874442 -7.16724478 -3.07167634 0 0 Z " fill="#F9F9F9" transform="translate(1448.5,908.5)"/>
<path d="M0 0 C5.57506977 3.23787283 10.32914557 7.88651832 12.1796875 14.20703125 C13.67795018 21.29092235 12.66297315 26.73047533 9.18359375 33.078125 C5.78106538 37.9559351 1.16349934 40.40838214 -4.375 42.3125 C-11.53634736 43.23309174 -17.41946921 42.49086784 -23.375 38.3125 C-27.75805676 34.51385081 -31.53180883 30.21483821 -32.375 24.3125 C-32.8641914 16.97462904 -31.88575768 11.29826589 -27.0625 5.5625 C-19.08293187 -1.11806867 -10.06549721 -4.75474916 0 0 Z M-24.75 8.875 C-29.15932182 14.3571782 -29.01822334 19.40011392 -28.375 26.3125 C-26.05526575 31.21963015 -22.65723069 34.1236048 -18.375 37.3125 C-12.7917827 39.17357243 -7.24545437 38.84246207 -1.625 37.25 C2.86835792 34.57126739 6.27228454 31.01793091 8.625 26.3125 C9.13464647 20.73145346 9.41181405 15.88612809 6.875 10.8125 C6.1325 9.9875 5.39 9.1625 4.625 8.3125 C4.00625 7.57 3.3875 6.8275 2.75 6.0625 C-1.69494128 2.40196013 -6.56305859 1.90186251 -12.140625 2.0703125 C-17.6449738 2.66693772 -21.17909766 4.80366242 -24.75 8.875 Z " fill="#1D1D1F" transform="translate(1558.375,776.6875)"/>
<path d="M0 0 C3.96 0 7.92 0 12 0 C16 4 16 4 16.4375 6.5625 C15.93493775 9.36248966 15.19653565 10.26107595 13 12 C13.309375 12.495 13.61875 12.99 13.9375 13.5 C15.41644382 16.97986781 15.62402851 20.24028509 16 24 C15.01 24 14.02 24 13 24 C12.85304688 23.44570313 12.70609375 22.89140625 12.5546875 22.3203125 C11.85614134 20.06408869 11.15091434 18.06574368 10 16 C6.95978632 14.40004618 6.95978632 14.40004618 4 14 C4 17.63 4 21.26 4 25 C2.68 25 1.36 25 0 25 C0 16.75 0 8.5 0 0 Z " fill="#343435" transform="translate(1541,785)"/>
<path d="M0 0 C2.0625 0.4375 2.0625 0.4375 4 1 C4.6875 4.3125 4.6875 4.3125 5 8 C3.5625 9.9375 3.5625 9.9375 2 11 C2.309375 11.495 2.61875 11.99 2.9375 12.5 C4.41644382 15.97986781 4.62402851 19.24028509 5 23 C4.01 23 3.02 23 2 23 C1.85304688 22.44570313 1.70609375 21.89140625 1.5546875 21.3203125 C0.85614134 19.06408869 0.15091434 17.06574368 -1 15 C-4.04021368 13.40004618 -4.04021368 13.40004618 -7 13 C-7 12.01 -7 11.02 -7 10 C-4.36 9.67 -1.72 9.34 1 9 C0.84402344 8.43410156 0.68804688 7.86820313 0.52734375 7.28515625 C0.23537109 6.18494141 0.23537109 6.18494141 -0.0625 5.0625 C-0.35833984 3.96615234 -0.35833984 3.96615234 -0.66015625 2.84765625 C-0.77230469 2.23792969 -0.88445312 1.62820313 -1 1 C-0.67 0.67 -0.34 0.34 0 0 Z " fill="#252527" transform="translate(1552,786)"/>
<path d="M0 0 C2.875 -0.125 2.875 -0.125 6 0 C8 2 8 2 8.125 5.125 C8.08375 6.07375 8.0425 7.0225 8 8 C5.29120665 9.35439668 2.99066732 9.06501451 0 9 C0 6.03 0 3.06 0 0 Z " fill="#F6F6F6" transform="translate(1545,787)"/>
<path d="M0 0 C2.0625 0.4375 2.0625 0.4375 4 1 C4.33 3.31 4.66 5.62 5 8 C3.68 8.33 2.36 8.66 1 9 C0.63877119 7.68942607 0.28619689 6.37646376 -0.0625 5.0625 C-0.35833984 3.96615234 -0.35833984 3.96615234 -0.66015625 2.84765625 C-0.77230469 2.23792969 -0.88445312 1.62820313 -1 1 C-0.67 0.67 -0.34 0.34 0 0 Z " fill="#2D2D2F" transform="translate(1552,786)"/>
<path d="M0 0 C0.33 0 0.66 0 1 0 C1 4.29 1 8.58 1 13 C0.67 13 0.34 13 0 13 C-0.33 10.69 -0.66 8.38 -1 6 C-1.99 6.495 -1.99 6.495 -3 7 C-1.125 1.125 -1.125 1.125 0 0 Z " fill="#C9C9C9" transform="translate(1339,1025)"/>
</svg>
