<?xml version="1.0" encoding="UTF-8"?>
<svg version="1.1" xmlns="http://www.w3.org/2000/svg" width="2000" height="936">
<path d="M0 0 C1.28390625 -0.01546875 1.28390625 -0.01546875 2.59375 -0.03125 C11.60588493 1.6161295 17.25241427 7.64656661 23.49743652 13.86837769 C24.48524506 14.83866663 25.4738779 15.80811698 26.46325731 16.77680409 C29.16775224 19.42985092 31.85980086 22.0952183 34.54975653 24.762995 C37.45762899 27.6428112 40.37661273 30.51133222 43.29379272 33.38171387 C50.32906763 40.3096613 57.3446499 47.25738012 64.35625529 54.20927161 C66.33839386 56.17437739 68.32096908 58.1390416 70.3036747 60.10357523 C82.63093327 72.31842445 94.95070717 84.54078168 107.251091 96.78269768 C110.09665795 99.61450766 112.94231095 102.44623111 115.78808594 105.27783203 C116.49532824 105.98156551 117.20257054 106.68529899 117.93124443 107.41035773 C129.38626845 118.80607526 140.88523133 130.15637417 152.40277117 141.48886763 C164.24155925 153.1390053 176.03821499 164.83051673 187.79551935 176.56289113 C194.39227559 183.14352745 201.00610209 189.70471871 207.66789246 196.21957016 C213.34182761 201.76852377 218.97652966 207.35388067 224.56451589 212.9894328 C227.41374099 215.8605998 230.27734339 218.71144116 233.19231796 221.51596451 C252.41008041 240.04447542 252.41008041 240.04447542 253.30298281 251.61988366 C253.28043303 259.85066811 252.11845046 264.77537166 246.27571332 270.78145492 C245.39673523 271.63213473 245.39673523 271.63213473 244.5 272.5 C243.71584748 273.3247583 242.93169497 274.1495166 242.12378025 274.99926758 C241.41492145 275.70720459 240.70606264 276.4151416 239.97572327 277.14453125 C238.73702988 278.38528664 238.73702988 278.38528664 237.47331238 279.65110779 C236.15053032 280.96849693 236.15053032 280.96849693 234.80102539 282.3125 C233.8441249 283.26911776 232.88744585 284.22595708 231.93096924 285.18299866 C229.35725275 287.75699976 226.78048482 290.3279257 224.20312047 292.89827347 C221.50139966 295.59370439 218.80254753 298.29200464 216.1033783 300.98999023 C211.00217778 306.08809395 205.89843561 311.18364517 200.79375499 316.27826405 C194.97792883 322.08287756 189.16497278 327.89036174 183.35224545 333.69807816 C171.40466763 345.63522901 159.45352495 357.56880449 147.5 369.5 C152.3508706 375.34555537 157.57677504 380.70630153 162.96191406 386.05957031 C164.39550553 387.49092044 165.82909687 388.92227069 167.26268339 390.35362577 C168.79152551 391.87911424 170.32160759 393.40334877 171.85205841 394.92722321 C175.04833173 398.10990025 178.24072102 401.29645441 181.43255615 404.48358154 C188.2020691 411.24203212 194.97582292 417.99622491 201.75 424.75 C209.07834213 432.05630385 216.40593842 439.36334683 223.72868133 446.67526317 C226.90211396 449.84371435 230.07796837 453.00971181 233.25569963 456.17385149 C234.75359316 457.66608643 236.25034281 459.15945729 237.74658203 460.65335083 C239.57098903 462.4748839 241.39720173 464.29461087 243.2255249 466.11221313 C244.02736206 466.9139798 244.82919922 467.71574646 245.65533447 468.54180908 C246.35363499 469.23788898 247.0519355 469.93396889 247.77139664 470.65114212 C252.39041548 475.5914943 251.93315807 479.81646393 252 486.25 C252.061875 487.71566406 252.061875 487.71566406 252.125 489.2109375 C252.17652786 493.99014657 252.0849048 497.48654838 248.96875 501.265625 C247.84655255 502.37915114 246.68882149 503.45790066 245.5 504.5 C244.66891724 505.23404053 244.66891724 505.23404053 243.82104492 505.98291016 C242.53922655 507.0964369 241.25104702 508.20266042 239.95849609 509.30371094 C234.16469468 514.47958358 228.78552165 520.11462224 223.3125 525.625 C222.04255313 526.89997412 220.77237251 528.17471546 219.50195312 529.44921875 C216.70261818 532.25828466 213.90549731 535.06953301 211.11042786 537.88284302 C206.84481301 542.16628161 202.56393974 546.43453528 198.2868042 550.70646667 C197.02344443 551.96836019 195.76008808 553.23025714 194.49673462 554.49215698 C193.82654926 555.16156689 193.15636391 555.83097679 192.4658699 556.52067184 C177.05839162 571.91049167 161.6537479 587.30314611 146.25074387 602.69744396 C137.34624956 611.59677012 128.44081168 620.49514833 119.53320312 629.39135742 C111.75614122 637.15847182 103.98082155 644.92732529 96.20761418 652.69829732 C92.09366146 656.81094399 87.97882641 660.92269922 83.86190033 665.03236961 C79.99546586 668.89204329 76.13135525 672.75402791 72.26905441 676.61783791 C70.84807251 678.0385436 69.42622671 679.45838581 68.00347519 680.87731934 C66.06843359 682.80742017 64.13646178 684.74054133 62.20526123 686.67448425 C61.35095587 687.52442035 61.35095587 687.52442035 60.47939181 688.39152688 C57.63822764 691.17980712 57.63822764 691.17980712 55.5 694.5 C53.64453125 694.25390625 53.64453125 694.25390625 51.5 693.5 C50.26171875 691.77734375 50.26171875 691.77734375 49.1875 689.4375 C48.76855469 688.53773438 48.34960938 687.63796875 47.91796875 686.7109375 C47.45003906 685.65132812 46.98210937 684.59171875 46.5 683.5 C46.22752441 682.88543945 45.95504883 682.27087891 45.67431641 681.63769531 C44.17107248 678.24132195 42.68710638 674.83737188 41.21875 671.42578125 C39.36072278 667.13169705 37.33192084 662.92424069 35.25 658.734375 C34.36000901 656.08294351 34.59005977 655.10710196 35.5 652.5 C36.68859535 650.93880916 36.68859535 650.93880916 38.21553135 649.41532516 C38.79576606 648.82911731 39.37600078 648.24290945 39.97381836 647.63893771 C40.61680294 647.00469166 41.25978751 646.37044561 41.92225647 645.71697998 C42.60098059 645.03569259 43.2797047 644.3544052 43.97899622 643.65247273 C46.26285615 641.36365803 48.55729886 639.0857538 50.85180664 636.80761719 C52.48804549 635.17222424 54.12362465 633.53617103 55.7585907 631.89950562 C60.20624131 627.4509922 64.66309908 623.01180662 69.12162328 618.57419491 C73.77680987 613.93772745 78.42353536 609.2927963 83.07115173 604.64874268 C90.87513095 596.85253676 98.68482959 589.06209268 106.49829102 581.27539062 C114.54639952 573.2548165 122.59135313 565.23109951 130.63208008 557.203125 C131.12765862 556.70833463 131.62323716 556.21354426 132.13383324 555.70376024 C134.61996999 553.22153858 137.1060448 550.7392549 139.59208882 548.25694036 C160.21846352 527.66166901 180.85579721 507.07740055 201.5 486.5 C200.54268306 485.36998008 199.58350381 484.24153765 198.62353516 483.11376953 C198.08959137 482.4852005 197.55564758 481.85663147 197.00552368 481.20901489 C195.41681384 479.40557014 193.75886231 477.86601898 191.875 476.375 C188.99328014 473.99884503 186.81818882 471.4363725 184.5 468.5 C183.675 467.84 182.85 467.18 182 466.5 C179.37100457 464.39680365 177.59680365 462.12100457 175.5 459.5 C174.675 458.84 173.85 458.18 173 457.5 C170.37100457 455.39680365 168.59680365 453.12100457 166.5 450.5 C165.736875 449.901875 164.97375 449.30375 164.1875 448.6875 C161.8096421 446.75203427 160.03679613 444.88468972 158.0625 442.5625 C155.94289757 440.07427106 153.86756642 437.85139138 151.3125 435.8125 C148.58143025 433.56695376 146.6893328 431.25432191 144.5 428.5 C143.675 427.84 142.85 427.18 142 426.5 C139.37100457 424.39680365 137.59680365 422.12100457 135.5 419.5 C134.675 418.84 133.85 418.18 133 417.5 C130.37100457 415.39680365 128.59680365 413.12100457 126.5 410.5 C125.736875 409.901875 124.97375 409.30375 124.1875 408.6875 C121.8096421 406.75203427 120.03679613 404.88468972 118.0625 402.5625 C115.94289757 400.07427106 113.86756642 397.85139138 111.3125 395.8125 C108.58143025 393.56695376 106.6893328 391.25432191 104.5 388.5 C103.675 387.84 102.85 387.18 102 386.5 C99.37100457 384.39680365 97.59680365 382.12100457 95.5 379.5 C94.675 378.84 93.85 378.18 93 377.5 C90.37100457 375.39680365 88.59680365 373.12100457 86.5 370.5 C85.695625 369.860625 84.89125 369.22125 84.0625 368.5625 C81.95177146 366.86362093 80.49239273 365.38766161 78.8125 363.3125 C76.80609749 360.48352767 76.80609749 360.48352767 74.5 359.5 C74.5 358.84 74.5 358.18 74.5 357.5 C73.51 357.17 72.52 356.84 71.5 356.5 C70.15576661 354.84211215 68.82381517 353.17423683 67.5 351.5 C66.675 350.84 65.85 350.18 65 349.5 C62.37100457 347.39680365 60.59680365 345.12100457 58.5 342.5 C57.675 341.84 56.85 341.18 56 340.5 C53.37100457 338.39680365 51.59680365 336.12100457 49.5 333.5 C48.675 332.84 47.85 332.18 47 331.5 C44.5 329.5 44.5 329.5 42.5625 327.0625 C40.84354967 324.92683444 39.36196561 323.4941588 37.25 321.8125 C36.3425 321.049375 35.435 320.28625 34.5 319.5 C34.5 318.84 34.5 318.18 34.5 317.5 C33.51 317.17 32.52 316.84 31.5 316.5 C31.5 315.84 31.5 315.18 31.5 314.5 C30.51 314.17 29.52 313.84 28.5 313.5 C28.5 312.84 28.5 312.18 28.5 311.5 C27.84 311.5 27.18 311.5 26.5 311.5 C26.17 312.49 25.84 313.48 25.5 314.5 C24.84 314.5 24.18 314.5 23.5 314.5 C23.17 315.49 22.84 316.48 22.5 317.5 C21.84 317.5 21.18 317.5 20.5 317.5 C20.17 318.49 19.84 319.48 19.5 320.5 C18.84 320.5 18.18 320.5 17.5 320.5 C17.17 321.49 16.84 322.48 16.5 323.5 C14.57421875 325.25390625 14.57421875 325.25390625 12.1875 327.0625 C11.40761719 327.66191406 10.62773437 328.26132812 9.82421875 328.87890625 C5.22987787 332.0833625 2.20207168 333.23575118 -3.5 332.5 C-9.27927087 329.83743915 -13.83785309 326.77349155 -17.5 321.5 C-18.49 320.84 -19.48 320.18 -20.5 319.5 C-20.5 318.84 -20.5 318.18 -20.5 317.5 C-21.49 317.17 -22.48 316.84 -23.5 316.5 C-23.5 315.84 -23.5 315.18 -23.5 314.5 C-24.49 314.17 -25.48 313.84 -26.5 313.5 C-28.1875 312.0625 -28.1875 312.0625 -29.5 310.5 C-29.5 309.84 -29.5 309.18 -29.5 308.5 C-30.49 308.17 -31.48 307.84 -32.5 307.5 C-32.5 306.84 -32.5 306.18 -32.5 305.5 C-33.49 305.17 -34.48 304.84 -35.5 304.5 C-37.1875 303.0625 -37.1875 303.0625 -38.5 301.5 C-38.5 300.84 -38.5 300.18 -38.5 299.5 C-39.49 299.17 -40.48 298.84 -41.5 298.5 C-42.85386936 296.84997172 -44.18678142 295.1825613 -45.5 293.5 C-46.49 292.84 -47.48 292.18 -48.5 291.5 C-48.5 290.84 -48.5 290.18 -48.5 289.5 C-49.16 289.5 -49.82 289.5 -50.5 289.5 C-52.125 288.125 -52.125 288.125 -53.5 286.5 C-53.5 285.84 -53.5 285.18 -53.5 284.5 C-54.49 284.17 -55.48 283.84 -56.5 283.5 C-58.6875 281.5625 -58.6875 281.5625 -60.5 279.5 C-60.5 278.84 -60.5 278.18 -60.5 277.5 C-61.49 277.17 -62.48 276.84 -63.5 276.5 C-63.5 275.84 -63.5 275.18 -63.5 274.5 C-64.49 274.17 -65.48 273.84 -66.5 273.5 C-66.5 272.84 -66.5 272.18 -66.5 271.5 C-67.09554687 271.23832031 -67.69109375 270.97664063 -68.3046875 270.70703125 C-72.60819286 268.34086905 -75.53781681 264.24942399 -77.875 260 C-79.47226262 253.61094952 -78.2960385 249.20857861 -75.5 243.5 C-74.84 243.5 -74.18 243.5 -73.5 243.5 C-73.17 242.51 -72.84 241.52 -72.5 240.5 C-71.84 240.5 -71.18 240.5 -70.5 240.5 C-70.17 239.51 -69.84 238.52 -69.5 237.5 C-68.84 237.5 -68.18 237.5 -67.5 237.5 C-67.17 236.51 -66.84 235.52 -66.5 234.5 C-65.84 234.5 -65.18 234.5 -64.5 234.5 C-64.17 233.51 -63.84 232.52 -63.5 231.5 C-62.84 231.5 -62.18 231.5 -61.5 231.5 C-61.17 230.51 -60.84 229.52 -60.5 228.5 C-59.84 228.5 -59.18 228.5 -58.5 228.5 C-58.17 227.51 -57.84 226.52 -57.5 225.5 C-56.84 225.5 -56.18 225.5 -55.5 225.5 C-55.17 224.51 -54.84 223.52 -54.5 222.5 C-52.84211215 221.15576661 -51.17423683 219.82381517 -49.5 218.5 C-48.14172029 216.85360035 -46.80745749 215.18704193 -45.5 213.5 C-43.375 211.1875 -43.375 211.1875 -41.5 209.5 C-40.84 209.5 -40.18 209.5 -39.5 209.5 C-39.17 208.51 -38.84 207.52 -38.5 206.5 C-37.84 206.5 -37.18 206.5 -36.5 206.5 C-36.17 205.51 -35.84 204.52 -35.5 203.5 C-34.84 203.5 -34.18 203.5 -33.5 203.5 C-33.17 202.51 -32.84 201.52 -32.5 200.5 C-31.84 200.5 -31.18 200.5 -30.5 200.5 C-30.17 199.51 -29.84 198.52 -29.5 197.5 C-28.84 197.5 -28.18 197.5 -27.5 197.5 C-27.17 196.51 -26.84 195.52 -26.5 194.5 C-25.84 194.5 -25.18 194.5 -24.5 194.5 C-24.17 193.51 -23.84 192.52 -23.5 191.5 C-22.84 191.5 -22.18 191.5 -21.5 191.5 C-21.83 152.89 -22.16 114.28 -22.5 74.5 C-81.57 133.57 -140.64 192.64 -201.5 253.5 C-197.36770994 258.32100507 -194.1936311 261.60528483 -189.5 265.5 C-187.82932867 267.49665598 -186.16247014 269.49651034 -184.5 271.5 C-182.83729713 272.83827304 -181.17083819 274.17189785 -179.5 275.5 C-178.16666667 277.16666667 -176.83333333 278.83333333 -175.5 280.5 C-174.675 281.16 -173.85 281.82 -173 282.5 C-170.37100457 284.60319635 -168.59680365 286.87899543 -166.5 289.5 C-165.736875 290.098125 -164.97375 290.69625 -164.1875 291.3125 C-161.8096421 293.24796573 -160.03679613 295.11531028 -158.0625 297.4375 C-155.94289757 299.92572894 -153.86756642 302.14860862 -151.3125 304.1875 C-148.58143025 306.43304624 -146.6893328 308.74567809 -144.5 311.5 C-143.675 312.16 -142.85 312.82 -142 313.5 C-139.37100457 315.60319635 -137.59680365 317.87899543 -135.5 320.5 C-134.675 321.16 -133.85 321.82 -133 322.5 C-130.37100457 324.60319635 -128.59680365 326.87899543 -126.5 329.5 C-125.675 330.16 -124.85 330.82 -124 331.5 C-121.37100457 333.60319635 -119.59680365 335.87899543 -117.5 338.5 C-116.675 339.16 -115.85 339.82 -115 340.5 C-112.5 342.5 -112.5 342.5 -110.5625 344.9375 C-108.51307596 347.65604996 -108.51307596 347.65604996 -105.5 350 C-102.70322888 352.3306426 -100.75147734 354.66749625 -98.5 357.5 C-97.675 358.16 -96.85 358.82 -96 359.5 C-93.37100457 361.60319635 -91.59680365 363.87899543 -89.5 366.5 C-88.675 367.16 -87.85 367.82 -87 368.5 C-84.37100457 370.60319635 -82.59680365 372.87899543 -80.5 375.5 C-79.675 376.16 -78.85 376.82 -78 377.5 C-75.37822591 379.59741927 -73.57286535 381.87437055 -71.5 384.5 C-70.51 385.16 -69.52 385.82 -68.5 386.5 C-68.5 387.16 -68.5 387.82 -68.5 388.5 C-67.51 388.83 -66.52 389.16 -65.5 389.5 C-63.8125 390.9375 -63.8125 390.9375 -62.5 392.5 C-62.5 393.16 -62.5 393.82 -62.5 394.5 C-61.51 394.83 -60.52 395.16 -59.5 395.5 C-59.5 396.16 -59.5 396.82 -59.5 397.5 C-58.51 397.83 -57.52 398.16 -56.5 398.5 C-56.5 399.16 -56.5 399.82 -56.5 400.5 C-55.51 400.83 -54.52 401.16 -53.5 401.5 C-52.15576661 403.15788785 -50.82381517 404.82576317 -49.5 406.5 C-48.675 407.16 -47.85 407.82 -47 408.5 C-44.37100457 410.60319635 -42.59680365 412.87899543 -40.5 415.5 C-39.675 416.16 -38.85 416.82 -38 417.5 C-35.37822591 419.59741927 -33.57286535 421.87437055 -31.5 424.5 C-30.51 425.16 -29.52 425.82 -28.5 426.5 C-28.5 427.16 -28.5 427.82 -28.5 428.5 C-24.24779896 424.93010056 -20.23078916 421.25568052 -16.40893555 417.22265625 C-11.84034657 412.44744767 -8.20336722 408.68930709 -1.5 407.5 C4.37942875 407.88256557 8.90998611 409.76394218 13.5 413.5 C14.85386936 415.15002828 16.18678142 416.8174387 17.5 418.5 C18.5650874 419.41745152 19.64929057 420.31310466 20.75 421.1875 C21.6575 421.950625 22.565 422.71375 23.5 423.5 C23.5 424.16 23.5 424.82 23.5 425.5 C24.49 425.83 25.48 426.16 26.5 426.5 C26.5 427.16 26.5 427.82 26.5 428.5 C27.49 428.83 28.48 429.16 29.5 429.5 C30.84423339 431.15788785 32.17618483 432.82576317 33.5 434.5 C34.325 435.16 35.15 435.82 36 436.5 C38.62899543 438.60319635 40.40319635 440.87899543 42.5 443.5 C43.325 444.16 44.15 444.82 45 445.5 C47.62899543 447.60319635 49.40319635 449.87899543 51.5 452.5 C52.325 453.16 53.15 453.82 54 454.5 C56.62177409 456.59741927 58.42713465 458.87437055 60.5 461.5 C61.49 462.16 62.48 462.82 63.5 463.5 C63.5 464.16 63.5 464.82 63.5 465.5 C64.49 465.83 65.48 466.16 66.5 466.5 C66.5 467.16 66.5 467.82 66.5 468.5 C67.49 468.83 68.48 469.16 69.5 469.5 C69.5 470.16 69.5 470.82 69.5 471.5 C70.49 471.83 71.48 472.16 72.5 472.5 C72.5 473.16 72.5 473.82 72.5 474.5 C73.16 474.5 73.82 474.5 74.5 474.5 C77.69865751 478.55060019 77.8292702 481.75602939 77.6875 486.8125 C77.66042969 488.06675781 77.63335937 489.32101562 77.60546875 490.61328125 C77.57066406 491.56589844 77.53585937 492.51851562 77.5 493.5 C76.84 493.5 76.18 493.5 75.5 493.5 C75.43546631 494.07967529 75.37093262 494.65935059 75.30444336 495.2565918 C74.16764485 498.42686236 72.3485428 499.43584906 69.62890625 501.39453125 C37.02238504 525.22632608 37.02238504 525.22632608 19.94335938 560.18945312 C18.37144396 571.6635814 18.35645986 583.19680329 18.75 594.75 C18.7824884 595.71021057 18.81497681 596.67042114 18.84844971 597.659729 C19.29530887 609.6497351 20.18965513 621.57460545 21.5 633.5 C24.47 633.83 27.44 634.16 30.5 634.5 C30.52684312 637.31256281 30.54676188 640.12487241 30.5625 642.9375 C30.57087891 643.73994141 30.57925781 644.54238281 30.58789062 645.36914062 C30.5965143 647.41295221 30.5522815 649.45683902 30.5 651.5 C28.76932301 653.23067699 26.43511196 652.62756529 24.078125 652.62939453 C22.92022461 652.63254669 21.76232422 652.63569885 20.56933594 652.63894653 C19.30895508 652.6369223 18.04857422 652.63489807 16.75 652.6328125 C15.46641602 652.63376923 14.18283203 652.63472595 12.86035156 652.63571167 C10.13996176 652.63718831 7.41960475 652.63503519 4.69921875 652.63037109 C1.20515331 652.62467381 -2.28883533 652.62795299 -5.78289795 652.63394356 C-9.10527153 652.63841754 -12.42762423 652.63528885 -15.75 652.6328125 C-17.01038086 652.63483673 -18.27076172 652.63686096 -19.56933594 652.63894653 C-20.72723633 652.63579437 -21.88513672 652.63264221 -23.078125 652.62939453 C-24.10325195 652.62859894 -25.12837891 652.62780334 -26.18457031 652.62698364 C-28.5 652.5 -28.5 652.5 -29.5 651.5 C-29.57325168 648.63732433 -29.59238205 645.799281 -29.5625 642.9375 C-29.55798828 642.13119141 -29.55347656 641.32488281 -29.54882812 640.49414062 C-29.53700518 638.49606244 -29.51906914 636.49802217 -29.5 634.5 C-26.86 634.5 -24.22 634.5 -21.5 634.5 C-21.5 606.12 -21.5 577.74 -21.5 548.5 C-22.49 548.17 -23.48 547.84 -24.5 547.5 C-24.5 546.84 -24.5 546.18 -24.5 545.5 C-25.49 545.17 -26.48 544.84 -27.5 544.5 C-27.5 543.84 -27.5 543.18 -27.5 542.5 C-28.49 542.17 -29.48 541.84 -30.5 541.5 C-30.5 540.84 -30.5 540.18 -30.5 539.5 C-31.11875 539.2525 -31.7375 539.005 -32.375 538.75 C-34.88710296 537.27229238 -35.26107344 536.06044823 -36.5 533.5 C-37.49 533.17 -38.48 532.84 -39.5 532.5 C-39.5 531.84 -39.5 531.18 -39.5 530.5 C-40.49 530.17 -41.48 529.84 -42.5 529.5 C-42.5 528.84 -42.5 528.18 -42.5 527.5 C-43.49 527.17 -44.48 526.84 -45.5 526.5 C-45.5 525.84 -45.5 525.18 -45.5 524.5 C-46.06203125 524.2628125 -46.6240625 524.025625 -47.203125 523.78125 C-50.01894042 522.21052303 -51.97955416 520.28528536 -54.25 518 C-55.44882812 516.80890625 -55.44882812 516.80890625 -56.671875 515.59375 C-58.5 513.5 -58.5 513.5 -58.5 511.5 C-59.11875 511.2525 -59.7375 511.005 -60.375 510.75 C-62.88710296 509.27229238 -63.26107344 508.06044823 -64.5 505.5 C-65.49 505.17 -66.48 504.84 -67.5 504.5 C-67.5 503.84 -67.5 503.18 -67.5 502.5 C-68.49 502.17 -69.48 501.84 -70.5 501.5 C-70.5 500.84 -70.5 500.18 -70.5 499.5 C-71.49 499.17 -72.48 498.84 -73.5 498.5 C-73.5 497.84 -73.5 497.18 -73.5 496.5 C-74.16 496.5 -74.82 496.5 -75.5 496.5 C-77.67397853 491.97087805 -79.23052869 488.61370082 -78.5 483.5 C-75.63682779 476.56772 -71.63725279 472.13978182 -66.25 467 C-65.50492188 466.27296875 -64.75984375 465.5459375 -63.9921875 464.796875 C-62.17030362 463.02170609 -60.33973303 461.25663182 -58.5 459.5 C-63.99143758 452.82465572 -70.06888603 446.76723509 -76.171875 440.66015625 C-77.30201317 439.52680036 -78.43207788 438.3933712 -79.56207275 437.25987244 C-81.91705627 434.89893408 -84.27406387 432.54003806 -86.63232422 430.18237305 C-89.65938231 427.15541733 -92.67945895 424.12159547 -95.69788742 421.08603764 C-98.02268791 418.75015531 -100.35198185 416.41879489 -102.6825943 414.08871269 C-103.79900896 412.97111573 -104.91379726 411.85189171 -106.02693939 410.73103523 C-107.57545608 409.17277946 -109.13010863 407.62091798 -110.68652344 406.07055664 C-112.01173004 404.74321251 -112.01173004 404.74321251 -113.3637085 403.38905334 C-115.27442321 401.27919076 -115.27442321 401.27919076 -117.5 401.5 C-118.83895632 403.16215268 -120.17130142 404.82963607 -121.5 406.5 C-122.304375 407.139375 -123.10875 407.77875 -123.9375 408.4375 C-126.07316556 410.15645033 -127.5058412 411.63803439 -129.1875 413.75 C-129.950625 414.6575 -130.71375 415.565 -131.5 416.5 C-132.16 416.5 -132.82 416.5 -133.5 416.5 C-133.83 417.49 -134.16 418.48 -134.5 419.5 C-135.16 419.5 -135.82 419.5 -136.5 419.5 C-136.83 420.49 -137.16 421.48 -137.5 422.5 C-138.16 422.5 -138.82 422.5 -139.5 422.5 C-139.83 423.49 -140.16 424.48 -140.5 425.5 C-141.16 425.5 -141.82 425.5 -142.5 425.5 C-142.83 426.49 -143.16 427.48 -143.5 428.5 C-144.16 428.5 -144.82 428.5 -145.5 428.5 C-145.83 429.49 -146.16 430.48 -146.5 431.5 C-147.16 431.5 -147.82 431.5 -148.5 431.5 C-148.83 432.49 -149.16 433.48 -149.5 434.5 C-150.16 434.5 -150.82 434.5 -151.5 434.5 C-151.83 435.49 -152.16 436.48 -152.5 437.5 C-153.16 437.5 -153.82 437.5 -154.5 437.5 C-154.83 438.49 -155.16 439.48 -155.5 440.5 C-157.15788785 441.84423339 -158.82576317 443.17618483 -160.5 444.5 C-161.85827971 446.14639965 -163.19254251 447.81295807 -164.5 449.5 C-166.625 451.8125 -166.625 451.8125 -168.5 453.5 C-169.16 453.5 -169.82 453.5 -170.5 453.5 C-170.83 454.49 -171.16 455.48 -171.5 456.5 C-172.16 456.5 -172.82 456.5 -173.5 456.5 C-173.83 457.49 -174.16 458.48 -174.5 459.5 C-175.16 459.5 -175.82 459.5 -176.5 459.5 C-176.5 460.16 -176.5 460.82 -176.5 461.5 C-178.375 463.625 -178.375 463.625 -180.5 465.5 C-181.16 465.5 -181.82 465.5 -182.5 465.5 C-182.83 466.49 -183.16 467.48 -183.5 468.5 C-184.16 468.5 -184.82 468.5 -185.5 468.5 C-185.83 469.49 -186.16 470.48 -186.5 471.5 C-187.16 471.5 -187.82 471.5 -188.5 471.5 C-188.83 472.49 -189.16 473.48 -189.5 474.5 C-190.16 474.5 -190.82 474.5 -191.5 474.5 C-191.83 475.49 -192.16 476.48 -192.5 477.5 C-193.16 477.5 -193.82 477.5 -194.5 477.5 C-194.83 478.49 -195.16 479.48 -195.5 480.5 C-197.12332967 481.88576923 -198.78724465 483.22641268 -200.5 484.5 C-199.92029132 487.65378253 -199.08242411 489.29223066 -196.82129002 491.55064678 C-196.24925549 492.12927115 -195.67722097 492.70789552 -195.08785206 493.30405396 C-194.1370944 494.24272701 -194.1370944 494.24272701 -193.16712952 495.20036316 C-192.1634107 496.20898524 -192.1634107 496.20898524 -191.13941473 497.23798352 C-188.88787135 499.49682924 -186.62573773 501.74476283 -184.36352539 503.99291992 C-182.75024241 505.60699346 -181.13761233 507.22171981 -179.52558899 508.83705139 C-175.13989559 513.22788817 -170.74490732 517.60931325 -166.34809804 521.98901534 C-161.75552536 526.5665796 -157.17103129 531.15222079 -152.58555603 535.7368927 C-144.88406744 543.43468626 -137.17700449 551.1268602 -129.46606445 558.81518555 C-121.52734628 566.73063779 -113.59319525 574.650629 -105.66430664 582.57592773 C-104.93159602 583.3083042 -104.93159602 583.3083042 -104.18408317 584.05547615 C-103.20008591 585.03903083 -102.21608892 586.02258578 -101.23209223 587.00614103 C-100.74672579 587.4912879 -100.26135934 587.97643478 -99.76128483 588.47628307 C-99.27716723 588.96018468 -98.79304964 589.44408629 -98.29426182 589.94265158 C-90.28856071 597.9444308 -82.27847361 605.94181826 -74.26820064 613.9390204 C-71.52938944 616.67372692 -68.79116936 619.40902427 -66.0530262 622.14439964 C-61.75706317 626.43547983 -57.45845939 630.72389737 -53.15775871 635.01022911 C-51.57581462 636.58763945 -49.99472072 638.16590291 -48.41452026 639.74505997 C-46.26527454 641.89256776 -44.11299428 644.03698569 -41.95985413 646.18058777 C-41.01244255 647.12929907 -41.01244255 647.12929907 -40.04589134 648.09717625 C-37.05624766 651.1719104 -37.05624766 651.1719104 -33.5 653.5 C-34.09191133 658.40713588 -36.27113097 662.12549465 -38.625 666.375 C-41.7492056 672.13745158 -44.74209447 677.92776004 -47.5 683.875 C-47.7902002 684.49874512 -48.08040039 685.12249023 -48.37939453 685.76513672 C-49.55423669 688.32139449 -50.60939858 690.82819573 -51.5 693.5 C-57.059157 693.24564234 -59.73194649 689.78102877 -63.375 686.015625 C-64.02194824 685.36301697 -64.66889648 684.71040894 -65.33544922 684.0380249 C-67.39989205 681.9512318 -69.45001796 679.85099098 -71.5 677.75 C-72.87927955 676.35064643 -74.25947843 674.95219837 -75.640625 673.5546875 C-78.18544261 670.97725386 -80.72478301 668.39468224 -83.2578125 665.80566406 C-85.98683346 663.0183952 -88.73807355 660.25472281 -91.5 657.5 C-92.64235641 656.35321071 -93.78424277 655.20595309 -94.92578125 654.05834961 C-98.3729208 650.59338367 -101.82313184 647.13149368 -105.27441406 643.6706543 C-106.75903347 642.18098628 -108.24275688 640.69042477 -109.72558594 639.19897461 C-111.87718585 637.03522011 -114.03202157 634.87473374 -116.1875 632.71484375 C-116.84596924 632.05121323 -117.50443848 631.3875827 -118.18286133 630.70384216 C-121.48215732 627.40414691 -124.82404195 624.38488194 -128.5 621.5 C-129.85386936 619.84997172 -131.18678142 618.1825613 -132.5 616.5 C-134.15404626 614.82080777 -135.82239676 613.15565785 -137.5 611.5 C-147.5 601.5 -147.5 601.5 -150.08984375 598.875 C-152.02391922 596.96913633 -153.9630233 595.21465382 -156.0625 593.5 C-158.94429187 591.07257272 -161.16249826 588.46083553 -163.5 585.5 C-164.325 584.84 -165.15 584.18 -166 583.5 C-168.62899543 581.39680365 -170.40319635 579.12100457 -172.5 576.5 C-173.325 575.84 -174.15 575.18 -175 574.5 C-177.62899543 572.39680365 -179.40319635 570.12100457 -181.5 567.5 C-182.263125 566.901875 -183.02625 566.30375 -183.8125 565.6875 C-186.1903579 563.75203427 -187.96320387 561.88468972 -189.9375 559.5625 C-192.05710243 557.07427106 -194.13243358 554.85139138 -196.6875 552.8125 C-199.41856975 550.56695376 -201.3106672 548.25432191 -203.5 545.5 C-204.325 544.84 -205.15 544.18 -206 543.5 C-208.62899543 541.39680365 -210.40319635 539.12100457 -212.5 536.5 C-213.325 535.84 -214.15 535.18 -215 534.5 C-217.62899543 532.39680365 -219.40319635 530.12100457 -221.5 527.5 C-222.325 526.84 -223.15 526.18 -224 525.5 C-226.62899543 523.39680365 -228.40319635 521.12100457 -230.5 518.5 C-231.304375 517.860625 -232.10875 517.22125 -232.9375 516.5625 C-235.90696837 514.17244009 -238.06330656 511.42403212 -240.5 508.5 C-241.325 507.84 -242.15 507.18 -243 506.5 C-246.02526481 504.07978815 -248.1535419 501.58391636 -250.5 498.5 C-250.5 497.84 -250.5 497.18 -250.5 496.5 C-251.16 496.5 -251.82 496.5 -252.5 496.5 C-252.76595983 493.37667681 -252.92259082 490.25630073 -253.0625 487.125 C-253.13791016 486.25488281 -253.21332031 485.38476562 -253.29101562 484.48828125 C-253.42757442 480.39151749 -253.24527076 477.52942449 -250.79115391 474.1396122 C-249.68658801 472.97519883 -249.68658801 472.97519883 -248.55970764 471.78726196 C-247.74107805 470.91763447 -246.92244846 470.04800697 -246.07901192 469.15202713 C-245.22793798 468.27685818 -244.37686405 467.40168922 -243.5 466.5 C-242.72105818 465.69638409 -241.94211636 464.89276817 -241.13957024 464.06480026 C-238.66536628 461.54303951 -236.1690576 459.04513134 -233.66577148 456.55224609 C-232.71842794 455.60518556 -231.77130638 454.65790293 -230.8243866 453.7104187 C-228.28591077 451.1716593 -225.74439294 448.63596616 -223.20226169 446.10086775 C-220.5339095 443.43882322 -217.86844304 440.77389225 -215.20265198 438.10928345 C-210.16881092 433.07853406 -205.13242931 428.05033628 -200.09509951 423.02308047 C-194.35418723 417.29339703 -188.61615923 411.56082874 -182.87835586 405.82803226 C-171.08874697 394.04883868 -159.29557278 382.27322145 -147.5 370.5 C-152.3772357 364.62028541 -157.63820726 359.23242621 -163.05371094 353.84863281 C-164.0072275 352.8970391 -164.96051393 351.94521473 -165.91358948 350.99317932 C-167.953376 348.956535 -169.99470062 346.92144991 -172.03725433 344.88758087 C-175.26713189 341.67129817 -178.49312673 338.45113959 -181.71856689 335.23040771 C-188.55940988 328.40062777 -195.40449336 321.57510506 -202.25 314.75 C-209.65533085 307.36670681 -217.05991638 299.98267495 -224.45964837 292.59376979 C-227.6665326 289.39186725 -230.87583884 286.19241832 -234.08702135 282.99482679 C-236.08044715 281.00885284 -238.07180569 279.02081598 -240.0626049 277.0322094 C-241.427395 275.67018728 -242.79469568 274.31068232 -244.1620636 272.95124817 C-244.97231491 272.14106735 -245.78256622 271.33088654 -246.61737061 270.49615479 C-247.67588289 269.44097342 -247.67588289 269.44097342 -248.75577927 268.36447525 C-253.00319439 263.824224 -253.01884859 260.34941572 -253.1875 254.4375 C-253.25388672 253.62861328 -253.32027344 252.81972656 -253.38867188 251.98632812 C-253.52303371 246.52950406 -252.29887618 243.77807342 -248.55068302 239.8049984 C-247.73233042 238.93207232 -246.91397782 238.05914625 -246.07082665 237.15976787 C-245.22245386 236.28204447 -244.37408106 235.40432107 -243.5 234.5 C-242.72894987 233.70182523 -241.95789974 232.90365046 -241.16348445 232.08128858 C-238.70523076 229.56839371 -236.22583943 227.07813748 -233.73985291 224.59268188 C-232.7888805 223.63839964 -231.83811745 222.68390872 -230.88754278 221.72923028 C-228.30317692 219.13496612 -225.71577692 216.54374769 -223.12779415 213.95309234 C-220.32644703 211.14780629 -217.52792211 208.3397069 -214.72895813 205.53204346 C-207.98923159 198.77266805 -201.24476041 192.01803665 -194.49966344 185.26402098 C-191.31805905 182.07802058 -188.13693847 178.89153718 -184.95575142 175.70512009 C-174.37603391 165.1084131 -163.79507081 154.51295219 -153.21048641 143.92110634 C-150.47161358 141.1803239 -147.73274614 138.43953607 -144.99389648 135.69873047 C-144.31324308 135.01759333 -143.63258968 134.33645619 -142.93131042 133.63467853 C-131.88558536 122.58063854 -120.84841563 111.51809707 -109.81475895 100.45201226 C-98.47207574 89.07626563 -87.12188328 77.70805569 -75.76425463 66.34723032 C-69.39309635 59.97390789 -63.02526374 53.59733869 -56.66581535 47.21232986 C-51.25581957 41.78063822 -45.83905813 36.35581037 -40.41334026 30.93982156 C-37.64674337 28.17777052 -34.8834732 25.41259539 -32.12886429 22.63858414 C-29.60537815 20.0974773 -27.07276798 17.56584511 -24.53269965 15.04131679 C-23.18527697 13.6973944 -21.84768117 12.34364148 -20.510508 10.98952067 C-14.63969252 5.18077934 -8.74635202 -0.10537774 0 0 Z M21.5 73.5 C19.91161573 91.89304512 18.84779217 110.29946547 18.25 128.75 C18.22761497 129.4237265 18.20522994 130.097453 18.18216658 130.79159546 C16.2294769 175.37904027 16.2294769 175.37904027 36.4034729 213.51324463 C46.62390532 224.06698391 58.64911297 233.07255736 71.16511536 240.71191406 C74.96598461 243.62267065 76.33476093 246.35341743 77.01171875 251.05078125 C77.06972656 252.29214844 77.12773437 253.53351563 77.1875 254.8125 C77.25324219 256.06675781 77.31898438 257.32101562 77.38671875 258.61328125 C77.42410156 259.56589844 77.46148437 260.51851562 77.5 261.5 C76.84 261.5 76.18 261.5 75.5 261.5 C75.17 262.49 74.84 263.48 74.5 264.5 C72.84211215 265.84423339 71.17423683 267.17618483 69.5 268.5 C68.84 269.325 68.18 270.15 67.5 271 C65.399745 273.62531875 63.12293491 275.41510302 60.5 277.5 C59.51 278.82 58.52 280.14 57.5 281.5 C76.64 300.64 95.78 319.78 115.5 339.5 C118.92392258 337.78803871 120.53954717 336.70881784 123.13201904 334.10848999 C123.83589249 333.40736588 124.53976593 332.70624176 125.26496887 331.98387146 C126.02669907 331.21495071 126.78842926 330.44602997 127.57324219 329.65380859 C128.38337265 328.84397018 129.19350311 328.03413177 130.02818298 327.19975281 C132.70584785 324.52069416 135.37635816 321.83461989 138.046875 319.1484375 C139.90160245 317.2899801 141.75677184 315.43196365 143.61236572 313.57437134 C147.99720961 309.18331439 152.37693083 304.78718468 156.75483155 300.38920653 C161.7399928 295.3816809 166.73084273 290.37984156 171.72217703 285.37847018 C181.98778989 275.09195926 192.24610654 264.79819287 202.5 254.5 C198.26667878 249.44737136 193.8469188 244.70413264 189.17948914 240.05250549 C188.46453004 239.33598641 187.74957095 238.61946732 187.01294643 237.88123554 C184.6316829 235.49600327 182.24688496 233.1143376 179.86206055 230.73266602 C178.14832693 229.01757661 176.43480596 227.3022747 174.72148132 225.58677673 C170.56092847 221.42214476 166.39804696 217.25984972 162.23400202 213.09871007 C158.85178465 209.71875465 155.47054893 206.33782011 152.09000587 202.95619011 C151.36728908 202.23324347 151.36728908 202.23324347 150.62997195 201.49569185 C149.65114666 200.51654682 148.6723236 199.53739955 147.69350276 198.55825006 C138.52995171 189.39185194 129.36334556 180.22851392 120.19568173 171.0662294 C112.32361881 163.19864236 104.45419337 155.3284252 96.58666992 147.45629883 C87.44698729 138.31127149 78.30569366 129.16785952 69.16180068 120.02704185 C68.18817012 119.05372985 67.21454165 118.08041575 66.2409153 117.10709953 C65.76187075 116.62820926 65.2828262 116.14931899 64.78926515 115.65591689 C61.40739566 112.27491223 58.0266908 108.89274572 54.64642906 105.51013374 C50.10570985 100.96632673 45.56236218 96.42515886 41.01719856 91.8857975 C39.34451698 90.21444449 37.67269746 88.54222825 36.00177765 86.86911392 C33.73200826 84.59663711 31.45922208 82.32722282 29.18559265 80.05860901 C28.51557321 79.38635884 27.84555376 78.71410868 27.1552307 78.0214873 C24.70548472 74.96759653 24.70548472 74.96759653 21.5 73.5 Z " fill="#7617F3" transform="translate(325.5,129.5)"/>
<path d="M0 0 C1.16015625 -0.04350586 1.16015625 -0.04350586 2.34375 -0.08789062 C3.11203125 -0.09626953 3.8803125 -0.10464844 4.671875 -0.11328125 C5.35862305 -0.12786377 6.04537109 -0.14244629 6.75292969 -0.1574707 C9.27036101 0.31633212 10.60974008 1.04080396 12.80371094 2.30102539 C18.06389815 5.04397478 23.13797298 4.91506778 28.96875 4.921875 C30.06723267 4.93841125 31.16571533 4.95494751 32.29748535 4.97198486 C35.78171475 5.02029597 39.26550817 5.0417991 42.75 5.0625 C45.12241757 5.09067367 47.49481498 5.12060304 49.8671875 5.15234375 C55.66137963 5.22605042 61.45545 5.27779176 67.25 5.3125 C68.69168113 10.78723328 69.79855745 16.19417819 70.62942505 21.79138184 C70.75364047 22.6067606 70.87785589 23.42213937 71.00583541 24.26222658 C71.41786432 26.97310596 71.82441105 29.68477776 72.23095703 32.39648438 C72.52648376 34.34842865 72.82235034 36.30032149 73.11853027 38.25216675 C73.9193566 43.53613146 74.71543879 48.82080114 75.51066065 54.1056118 C76.34336537 59.63401729 77.18044596 65.1617601 78.01705933 70.6895752 C79.59963466 81.15072041 81.17828312 91.61245425 82.75551593 102.07440615 C84.55175712 113.98776395 86.35238365 125.90045761 88.15337586 137.81309795 C91.85712499 162.31216361 95.55537587 186.81205669 99.25 211.3125 C101.86903807 197.9642887 104.23339449 184.61189011 106.25854492 171.16137695 C106.53302543 169.35853907 106.80786286 167.55575551 107.08302307 165.75302124 C107.66686717 161.92316551 108.24833346 158.09295976 108.82784081 154.26244545 C109.7441191 148.20647439 110.66637923 142.15142302 111.58943176 136.09648132 C113.37735389 124.3631135 115.15970589 112.62890331 116.94112396 100.89454651 C119.21922785 85.88905462 121.49882537 70.88379332 123.7856701 55.87963074 C124.70341071 49.85685421 125.61777619 43.83357781 126.52954328 37.8098942 C127.09453665 34.08161468 127.66229984 30.35376089 128.23082542 26.62601852 C128.494454 24.89352363 128.75690492 23.16084908 129.018116 21.42798805 C129.37353431 19.07120259 129.7330721 16.71508216 130.09367371 14.35908508 C130.24863155 13.32124507 130.24863155 13.32124507 130.40671986 12.2624386 C131.13590991 7.54068017 131.13590991 7.54068017 132.25 5.3125 C149.08 5.3125 165.91 5.3125 183.25 5.3125 C182.12501162 18.81236061 182.12501162 18.81236061 181.22584534 23.8709259 C181.02333979 25.02571882 180.82083424 26.18051174 180.61219215 27.37029839 C180.3915579 28.59621759 180.17092365 29.8221368 179.94360352 31.08520508 C179.70583553 32.42911673 179.46855312 33.77311437 179.23171043 35.11718941 C178.58853909 38.75937558 177.93871456 42.40034638 177.28774714 46.04114604 C176.59214532 49.9388577 175.90306473 53.83772233 175.21327209 57.73646545 C174.03265644 64.40457002 172.84832612 71.07200524 171.66119385 77.73895264 C169.0309705 92.51036189 166.41223011 107.28380782 163.79328132 122.05721951 C163.01956012 126.42170683 162.24558614 130.78614901 161.47103882 135.15048981 C157.47703774 157.65619553 153.52114629 180.16787407 149.62890625 202.69140625 C149.20965489 205.11362491 148.79032948 207.53583076 148.3709259 209.95802307 C146.65457676 219.87450925 144.94142648 229.79147902 143.24608898 239.71158123 C142.56903425 243.66326332 141.88527631 247.61376498 141.19979668 251.56399345 C140.89360053 253.33730148 140.59025393 255.11110491 140.29033089 256.8854847 C137.69483171 272.23361486 134.75718846 287.96323604 128.375 302.25 C128.03259277 303.0352002 127.69018555 303.82040039 127.33740234 304.62939453 C117.05136958 327.75513533 100.26892359 348.6172347 76.25 358.3125 C75.59 358.3125 74.93 358.3125 74.25 358.3125 C73.06420898 356.69873047 73.06420898 356.69873047 71.74609375 354.4296875 C71.2564917 353.59816162 70.76688965 352.76663574 70.26245117 351.90991211 C69.74271729 351.01151611 69.2229834 350.11312012 68.6875 349.1875 C64.24673613 341.61049299 59.64392187 334.22225269 54.69921875 326.96484375 C54.22097656 326.08957031 53.74273438 325.21429687 53.25 324.3125 C54.52866248 320.47651257 55.87932036 320.08368416 59.3125 318.0625 C68.88364919 312.11922496 74.65812002 306.13607293 80.25 296.3125 C80.70246094 295.56613281 81.15492188 294.81976562 81.62109375 294.05078125 C86.99824062 284.45232283 89.10921217 273.01643914 91.25 262.3125 C81.02 262.3125 70.79 262.3125 60.25 262.3125 C59.59346939 258.57336777 59.59346939 258.57336777 58.92367554 254.75869751 C54.77574776 231.13512781 50.62765718 207.51158671 46.47942162 183.88807106 C44.34736836 171.74635796 42.2153675 159.60463566 40.08349609 147.46289062 C38.22234569 136.86299612 36.36109074 126.26311998 34.49971735 115.66326463 C33.51688248 110.06635138 32.53409511 104.4694298 31.55143356 98.87248611 C27.12899256 73.68380483 22.69859228 48.49657773 18.25 23.3125 C17.92 34.2025 17.59 45.0925 17.25 56.3125 C13.39406183 55.54131237 10.52043912 54.66391798 6.9375 53.25 C-1.39894645 50.43683575 -12.0924074 49.20971477 -20.375 52.875 C-27.97299779 57.6614039 -32.1047589 65.2339745 -34.40234375 73.72265625 C-36.93797601 85.40137126 -36.91182367 97.27784056 -36.95532227 109.16674805 C-36.96491962 110.84322847 -36.97493074 112.51970656 -36.98532104 114.19618225 C-37.01217516 118.71603287 -37.03328927 123.23589372 -37.05332303 127.75577903 C-37.07530395 132.49099795 -37.10263299 137.22618604 -37.12937927 141.96138 C-37.17914344 150.91415327 -37.22414213 159.8669438 -37.26740164 168.81975061 C-37.31691378 179.01813918 -37.37177974 189.21649679 -37.42708123 199.41485536 C-37.54065118 220.38070935 -37.64683732 241.34659204 -37.75 262.3125 C-54.25 262.3125 -70.75 262.3125 -87.75 262.3125 C-87.75 177.5025 -87.75 92.6925 -87.75 5.3125 C-71.25 5.3125 -54.75 5.3125 -37.75 5.3125 C-37.42 11.9125 -37.09 18.5125 -36.75 25.3125 C-35.739375 23.476875 -34.72875 21.64125 -33.6875 19.75 C-28.12023426 10.28564824 -21.68305881 3.88076881 -10.85717773 0.76831055 C-7.25975737 -0.00985928 -3.66848567 0.04495693 0 0 Z " fill="#FFFFFF" transform="translate(1063.75,382.6875)"/>
<path d="M0 0 C16.5 0 33 0 50 0 C50 110.55 50 221.1 50 335 C33.5 335 17 335 0 335 C-0.33 328.73 -0.66 322.46 -1 316 C-1.969375 317.670625 -2.93875 319.34125 -3.9375 321.0625 C-9.56384234 329.85224767 -16.92437618 335.21474447 -27 338 C-43.27197719 341.1216633 -61.20939151 338.21398952 -75 329 C-89.79019179 318.12162714 -96.5320758 302.0718982 -99.3581543 284.390625 C-101.99401965 266.62768441 -102.16097146 248.70873184 -102.16796875 230.78515625 C-102.17119782 228.79430622 -102.17456299 226.8034564 -102.17805481 224.81260681 C-102.18399038 220.66534884 -102.1859006 216.51811152 -102.18530273 212.37084961 C-102.18522168 208.18135238 -102.19214085 203.99196497 -102.20581055 199.80249023 C-102.49352911 110.26369862 -102.49352911 110.26369862 -81.625 88.1875 C-66.7915111 74.43938834 -49.26681322 73.07831185 -29.90625 73.78222656 C-22.10161444 74.36704972 -16.37435562 77.42881295 -10.625 82.6875 C-7 87 -7 87 -1 97 C-0.67 64.99 -0.34 32.98 0 0 Z M-45 131 C-50.84038951 139.67715012 -51.29929036 148.49134473 -51.29052734 158.73925781 C-51.29724457 159.88036514 -51.30396179 161.02147247 -51.31088257 162.19715881 C-51.3297957 165.94919251 -51.33378346 169.70104667 -51.3359375 173.453125 C-51.34237015 176.07712882 -51.34909886 178.70113194 -51.35610962 181.32513428 C-51.36886505 186.81914427 -51.3718782 192.31310611 -51.37060547 197.80712891 C-51.36940565 204.12661521 -51.39048722 210.44575913 -51.4220928 216.76515889 C-51.45156436 222.8792655 -51.45857703 228.99320986 -51.45738602 235.10738373 C-51.45973503 237.69236397 -51.46851876 240.27734716 -51.48405075 242.8622818 C-52.26944526 263.65975766 -52.26944526 263.65975766 -44.75 282.5625 C-37.75860211 288.75942085 -31.94711786 289.6730961 -22.56640625 289.375 C-15.81169307 288.66475634 -11.98072745 286.53314795 -7.6875 281.3125 C1.85420467 267.21973835 0.30243146 248.16744697 0.265625 231.90625 C0.26697575 229.78503373 0.26891969 227.66381776 0.27142334 225.54260254 C0.2743553 221.11837793 0.27013944 216.69423462 0.26074219 212.27001953 C0.24934891 206.635333 0.25591877 201.00083709 0.26788712 195.36615753 C0.27515804 190.99235633 0.2727939 186.61859938 0.26763153 182.24479675 C0.26630947 180.16863481 0.26789135 178.09246869 0.27259064 176.01631165 C0.80954769 150.10556831 0.80954769 150.10556831 -10.2421875 127.47265625 C-15.12298331 123.38363398 -19.7924082 122.51998435 -26 122.625 C-26.68578125 122.61339844 -27.3715625 122.60179687 -28.078125 122.58984375 C-35.54840653 122.63261254 -40.20472041 125.447571 -45 131 Z " fill="#FFFFFF" transform="translate(1552,310)"/>
<path d="M0 0 C1.09424789 0.00131424 1.09424789 0.00131424 2.21060181 0.00265503 C23.19936798 0.08580791 41.87292348 3.48568332 57.53515625 18.7109375 C79.33571344 42.88651474 76.9375 77.17299431 76.9375 107.375 C59.7775 107.375 42.6175 107.375 24.9375 107.375 C24.625 90 24.625 90 24.54956055 84.58056641 C24.34124494 73.9455255 24.04792466 64.2915024 16.828125 55.84765625 C11.65774564 51.8203153 6.42837252 50.84048539 0 50.9375 C-1.05441284 50.94885986 -1.05441284 50.94885986 -2.13012695 50.96044922 C-9.61080879 51.19826182 -13.62327672 52.98998168 -18.875 58.125 C-26.7910239 69.88594979 -26.49201925 85.19362772 -23.9375 98.6875 C-20.32487971 113.44327302 -13.44063393 122.76455909 -0.7109375 130.59375 C2.97202899 132.81591243 6.68427768 134.98670903 10.3984375 137.15625 C34.31583828 151.13429441 34.31583828 151.13429441 43.9375 159.375 C44.73285156 160.01050781 45.52820313 160.64601563 46.34765625 161.30078125 C61.52015704 173.87079477 71.3886948 192.1176062 74.9375 211.375 C75.2013147 212.79220337 75.2013147 212.79220337 75.47045898 214.23803711 C77.05517824 223.8442966 77.27721178 233.29683786 77.25317383 243.0144043 C77.2500167 245.67343324 77.27355675 248.33134209 77.29882812 250.99023438 C77.37563541 271.64158288 74.34175472 291.26664868 61.9375 308.375 C61.50050781 309.00792969 61.06351563 309.64085937 60.61328125 310.29296875 C54.2243734 318.67721118 44.51206127 324.14060621 34.8125 327.8125 C33.88268311 328.16453491 33.88268311 328.16453491 32.93408203 328.52368164 C22.47271565 332.19698293 11.96377648 332.72238382 0.97802734 332.69067383 C-1.29508975 332.68752412 -3.56688738 332.71101845 -5.83984375 332.73632812 C-23.82472837 332.81472259 -41.43564414 329.50412946 -56.0625 318.375 C-56.65289063 317.97152344 -57.24328125 317.56804687 -57.8515625 317.15234375 C-70.57523693 307.65316215 -75.58506551 291.08046964 -78.3125 276.1875 C-79.94602758 264.30294873 -80.19521492 252.53445387 -80.125 240.5625 C-80.104375 235.550625 -80.08375 230.53875 -80.0625 225.375 C-63.2325 225.375 -46.4025 225.375 -29.0625 225.375 C-28.6875 239.625 -28.6875 239.625 -28.58447266 244.04003906 C-28.34550432 262.33741519 -28.34550432 262.33741519 -19.6875 277.75 C-11.73895264 282.67052932 -2.10425441 282.39050659 6.9375 281.375 C12.87294303 279.76343729 17.77458625 276.82808614 20.9765625 271.46875 C28.07074234 256.01151263 26.88622624 233.89147594 21.1875 218.125 C14.35278644 202.59831375 -0.82865328 195.17762918 -14.55883789 186.4621582 C-41.1668428 169.53591116 -67.4153528 152.01003473 -74.8125 119.3125 C-77.1475579 108.11236764 -77.30150196 96.7733382 -77.3125 85.375 C-77.31350708 84.6477774 -77.31451416 83.92055481 -77.31555176 83.17129517 C-77.29318229 59.23168288 -74.10270345 35.98868852 -56.88671875 17.94921875 C-40.9398568 3.41397391 -20.78772823 -0.06089034 0 0 Z " fill="#FFFFFF" transform="translate(731.0625,315.625)"/>
<path d="M0 0 C1.12143906 0.00555908 1.12143906 0.00555908 2.26553345 0.01123047 C21.61623759 0.14783281 40.80489256 3.31113543 55.359375 17.359375 C76.90031867 41.84608875 75.64561798 72.43263047 75.39349365 103.18725586 C75.36234619 107.39822816 75.34900664 111.60925728 75.33398438 115.8203125 C75.3021791 124.0261941 75.25124114 132.23180447 75.1875 140.4375 C64.42091047 143.35801396 53.50104678 145.37851575 42.546875 147.44921875 C40.56856671 147.82577511 38.5903165 148.2026367 36.61212158 148.57978821 C31.44415675 149.56424471 26.27542138 150.54459438 21.10650635 151.52404785 C15.81662002 152.52719149 10.52748427 153.53427656 5.23828125 154.54101562 C-5.11125439 156.51033656 -15.46160957 158.4753133 -25.8125 160.4375 C-25.8326738 164.09764812 -25.84475302 167.75778168 -25.85546875 171.41796875 C-25.86122925 172.44531128 -25.86698975 173.47265381 -25.8729248 174.53112793 C-25.98071388 193.82990655 -25.98071388 193.82990655 -17.03515625 210.34375 C-10.17007767 216.49764708 -2.5848332 216.0065232 6.21044922 215.61669922 C11.83826604 215.10659579 14.99886651 212.54689126 19 208.8125 C25.69259006 198.48678961 25.05226161 186.35750307 26.1875 174.4375 C42.3575 174.4375 58.5275 174.4375 75.1875 174.4375 C75.1875 225.48314315 75.1875 225.48314315 59.1875 244.4375 C58.56617188 245.20449219 57.94484375 245.97148438 57.3046875 246.76171875 C44.74945319 260.82071686 25.19481567 265.1607274 7.13500977 266.19018555 C-14.01048447 267.20393397 -35.79474604 264.40902474 -52.3125 249.9375 C-53.83220186 248.4574641 -55.33459589 246.9592751 -56.8125 245.4375 C-57.37324219 244.89738281 -57.93398437 244.35726562 -58.51171875 243.80078125 C-77.59548971 223.91559209 -76.12900754 191.53847702 -76.11328125 166.14453125 C-76.11717798 163.50485671 -76.12151462 160.86518278 -76.12626648 158.22550964 C-76.13443027 152.7127419 -76.13360538 147.20002552 -76.12817383 141.68725586 C-76.12214787 135.37408681 -76.13442759 129.0611414 -76.1557439 122.74801046 C-76.17353776 117.27053308 -76.17933348 111.79312571 -76.17610615 106.3156206 C-76.1743203 103.06950789 -76.17803082 99.82358646 -76.19082069 96.57749367 C-76.28291497 69.93579514 -75.82570264 39.95049812 -56.58203125 19.08203125 C-40.3631865 4.00888856 -21.46964337 -0.19095532 0 0 Z M-21.8125 60.4375 C-28.43931394 71.79775247 -27.08220303 87.62884751 -26.9375 100.375 C-26.9274329 101.94465564 -26.91831375 103.51431765 -26.91015625 105.08398438 C-26.88847755 108.86865191 -26.85416185 112.65300189 -26.8125 116.4375 C-19.9071364 115.0328975 -13.00205482 113.626915 -6.09716797 112.2199707 C-3.74794896 111.74146215 -1.39866546 111.26327007 0.95068359 110.78540039 C4.32666741 110.09865083 7.70241803 109.41076518 11.078125 108.72265625 C12.12929504 108.50907974 13.18046509 108.29550323 14.26348877 108.07545471 C15.24420349 107.87532272 16.22491821 107.67519073 17.23535156 107.46899414 C18.5277475 107.20585167 18.5277475 107.20585167 19.84625244 106.93739319 C21.9740998 106.4830643 24.08069716 105.98028869 26.1875 105.4375 C27.67084148 78.04030291 27.67084148 78.04030291 17.04296875 53.875 C11.62468159 49.67725332 6.31753274 48.93476712 -0.3125 49 C-1.03308594 48.98001953 -1.75367188 48.96003906 -2.49609375 48.93945312 C-11.26372666 48.94738046 -16.89342692 53.43381973 -21.8125 60.4375 Z " fill="#FFFFFF" transform="translate(1713.8125,382.5625)"/>
<path d="M0 0 C2.3166288 1.42741775 4.39736165 2.96393929 6.5078125 4.6796875 C7.18328125 5.20820313 7.85875 5.73671875 8.5546875 6.28125 C23.23527482 19.19789078 26.12434256 40.29324054 27.5078125 58.6796875 C27.82199755 65.38501435 27.76269885 72.09634034 27.73486328 78.80712891 C27.73429747 80.7506459 27.73461904 82.69416331 27.73574829 84.63768005 C27.73631617 89.85342852 27.72465464 95.06908279 27.71060038 100.28480959 C27.69799757 105.7580138 27.69691506 111.23122077 27.69454956 116.70443726 C27.68836261 127.04177922 27.67198995 137.37907828 27.65185058 147.71640146 C27.6294043 159.49651617 27.61847631 171.27663307 27.60845971 183.05676389 C27.58762089 207.26443427 27.55097995 231.47204593 27.5078125 255.6796875 C11.0078125 255.6796875 -5.4921875 255.6796875 -22.4921875 255.6796875 C-22.50677002 249.9763916 -22.52135254 244.2730957 -22.53637695 238.39697266 C-22.5867039 219.55760633 -22.65314576 200.71832233 -22.72790241 181.87903786 C-22.7728355 170.45631458 -22.81225596 159.03362231 -22.83862305 147.61083984 C-22.8616232 137.6527791 -22.89504389 127.69481667 -22.94088906 117.73683393 C-22.96479395 112.46594567 -22.98354068 107.19515462 -22.98980141 101.92421341 C-22.99586457 96.95837485 -23.01590907 91.99278495 -23.04646301 87.02703857 C-23.05522348 85.20906681 -23.05896996 83.39106253 -23.05719566 81.57307053 C-22.97250675 64.56835125 -22.97250675 64.56835125 -30.4921875 49.6796875 C-36.49804076 44.25977114 -41.9317303 44.24162145 -49.75 44.4140625 C-55.69931483 44.83635207 -59.260448 46.12035321 -63.1953125 50.6328125 C-68.63622843 58.18670549 -70.83130179 66.46182931 -71.65975952 75.6320343 C-71.73941181 76.45349955 -71.81906409 77.2749648 -71.90113008 78.12132293 C-72.66441721 86.56173222 -72.79997291 94.97288045 -72.81103516 103.44213867 C-72.82036909 105.11980147 -72.83054267 106.79745978 -72.84147644 108.47511292 C-72.86840088 112.96143858 -72.8838121 117.44773356 -72.89690447 121.93411803 C-72.91270245 126.64795245 -72.93943798 131.36172562 -72.9649353 136.07551575 C-73.01143171 144.97135062 -73.0483153 153.86719741 -73.08160818 162.76309043 C-73.1200375 172.90364234 -73.16939198 183.0441323 -73.21959233 193.18463171 C-73.32247797 214.01627659 -73.41043576 234.84794822 -73.4921875 255.6796875 C-89.9921875 255.6796875 -106.4921875 255.6796875 -123.4921875 255.6796875 C-123.4921875 170.8696875 -123.4921875 86.0596875 -123.4921875 -1.3203125 C-106.9921875 -1.3203125 -90.4921875 -1.3203125 -73.4921875 -1.3203125 C-72.9971875 9.0746875 -72.9971875 9.0746875 -72.4921875 19.6796875 C-71.5021875 18.3596875 -70.5121875 17.0396875 -69.4921875 15.6796875 C-62.48954837 6.77613236 -56.06341277 1.10550715 -45.4921875 -3.3203125 C-44.61949219 -3.69671875 -43.74679687 -4.073125 -42.84765625 -4.4609375 C-29.23556449 -7.94715425 -12.40141307 -6.57002761 0 0 Z " fill="#FFFFFF" transform="translate(1389.4921875,389.3203125)"/>
<path d="M0 0 C16.5 0 33 0 50 0 C50 27.06 50 54.12 50 82 C64.19 82 78.38 82 93 82 C93 97.51 93 113.02 93 129 C78.81 129 64.62 129 50 129 C50.08568374 146.86436411 50.17940217 164.72862606 50.28752708 182.59286594 C50.33748665 190.88895925 50.38393033 199.18504349 50.421875 207.48120117 C50.45498609 214.71855006 50.49492023 221.95582496 50.54279006 229.19309181 C50.56786669 233.01932937 50.58970163 236.84551905 50.60334396 240.67181587 C50.61633778 244.28582478 50.63857104 247.89966785 50.66738319 251.51358414 C50.68053453 253.44654865 50.68434664 255.37956995 50.68769836 257.31257629 C50.47449462 274.62482099 50.47449462 274.62482099 57 290 C61.24461493 293.30922756 65.23631369 293.50518366 70.4375 293.4375 C71.22866211 293.43210205 72.01982422 293.4267041 72.83496094 293.42114258 C81.47055715 293.2013432 89.46706376 291.31621986 97.203125 287.36328125 C100 286 100 286 103 286 C103.99 299.86 104.98 313.72 106 328 C95.73170732 334.84552846 95.73170732 334.84552846 90.5 337.25 C89.4790625 337.72953125 88.458125 338.2090625 87.40625 338.703125 C78.54126124 342.07832714 70.12490385 342.33676068 60.6875 342.3125 C59.44548828 342.32861328 58.20347656 342.34472656 56.92382812 342.36132812 C41.70664154 342.36930777 28.14664969 338.63266811 16.83984375 328.01953125 C-2.93078004 306.31801851 -0.45241638 273.00617338 -0.30418181 245.68189859 C-0.285137 241.56471212 -0.2836431 237.44751548 -0.28010559 233.33029175 C-0.27086529 225.57132363 -0.24636291 217.81248578 -0.21605712 210.05357444 C-0.18225992 201.20439987 -0.16596417 192.35521832 -0.15097082 183.50599504 C-0.11980389 165.33724168 -0.06489523 147.16866635 0 129 C-8.91 129 -17.82 129 -27 129 C-27 113.49 -27 97.98 -27 82 C-18.09 82 -9.18 82 0 82 C0 54.94 0 27.88 0 0 Z " fill="#FFFFFF" transform="translate(849,306)"/>
<path d="M0 0 C1.16015625 -0.04350586 1.16015625 -0.04350586 2.34375 -0.08789062 C3.11203125 -0.09626953 3.8803125 -0.10464844 4.671875 -0.11328125 C5.35862305 -0.12786377 6.04537109 -0.14244629 6.75292969 -0.1574707 C9.25 0.3125 9.25 0.3125 17.25 4.3125 C17.25 21.4725 17.25 38.6325 17.25 56.3125 C13.39406183 55.54131237 10.52043912 54.66391798 6.9375 53.25 C-1.39894645 50.43683575 -12.0924074 49.20971477 -20.375 52.875 C-27.97299779 57.6614039 -32.1047589 65.2339745 -34.40234375 73.72265625 C-36.93797601 85.40137126 -36.91182367 97.27784056 -36.95532227 109.16674805 C-36.96491962 110.84322847 -36.97493074 112.51970656 -36.98532104 114.19618225 C-37.01217516 118.71603287 -37.03328927 123.23589372 -37.05332303 127.75577903 C-37.07530395 132.49099795 -37.10263299 137.22618604 -37.12937927 141.96138 C-37.17914344 150.91415327 -37.22414213 159.8669438 -37.26740164 168.81975061 C-37.31691378 179.01813918 -37.37177974 189.21649679 -37.42708123 199.41485536 C-37.54065118 220.38070935 -37.64683732 241.34659204 -37.75 262.3125 C-54.25 262.3125 -70.75 262.3125 -87.75 262.3125 C-87.75 177.5025 -87.75 92.6925 -87.75 5.3125 C-71.25 5.3125 -54.75 5.3125 -37.75 5.3125 C-37.42 11.9125 -37.09 18.5125 -36.75 25.3125 C-35.739375 23.476875 -34.72875 21.64125 -33.6875 19.75 C-28.12023426 10.28564824 -21.68305881 3.88076881 -10.85717773 0.76831055 C-7.25975737 -0.00985928 -3.66848567 0.04495693 0 0 Z " fill="#FFFFFF" transform="translate(1910.75,382.6875)"/>
<path d="M0 0 C1.23903076 -0.02376709 2.47806152 -0.04753418 3.75463867 -0.07202148 C17.32160236 0.12258104 26.1259684 6.31964507 35.375 15.8125 C43.64852212 24.77993043 45.7192387 33.99013237 45.8125 45.9375 C45.82265137 46.86771973 45.83280273 47.79793945 45.84326172 48.75634766 C45.73260501 57.53874952 43.62212826 64.48915617 38.8125 71.875 C37.91337891 73.28458984 37.91337891 73.28458984 36.99609375 74.72265625 C36.19365234 75.75712891 36.19365234 75.75712891 35.375 76.8125 C34.715 76.8125 34.055 76.8125 33.375 76.8125 C32.88 78.2975 32.88 78.2975 32.375 79.8125 C31.715 79.8125 31.055 79.8125 30.375 79.8125 C30.375 80.4725 30.375 81.1325 30.375 81.8125 C21.26948247 89.68146577 11.49413852 92.15373657 -0.25 92.25 C-1.57402832 92.26522705 -1.57402832 92.26522705 -2.92480469 92.28076172 C-16.30259815 92.10335729 -27.04870137 85.84472279 -36.3828125 76.48828125 C-37.7735875 74.61204705 -38.2172638 73.09482826 -38.625 70.8125 C-39.285 70.8125 -39.945 70.8125 -40.625 70.8125 C-41.25367668 69.43917716 -41.87773891 68.06374167 -42.5 66.6875 C-43.02207031 65.53894531 -43.02207031 65.53894531 -43.5546875 64.3671875 C-47.77900985 54.28431591 -49.00067163 40.71235295 -45.0625 30.25 C-44.30351157 28.7426756 -43.48765788 27.2629867 -42.625 25.8125 C-42.11582031 24.89210938 -41.60664063 23.97171875 -41.08203125 23.0234375 C-37.40434243 16.77894069 -33.51181914 12.02887131 -27.625 7.8125 C-26.83996094 7.15894531 -26.05492187 6.50539063 -25.24609375 5.83203125 C-17.26826154 0.27306889 -9.5040509 0.10429604 0 0 Z " fill="#9728EA" transform="translate(321.625,23.1875)"/>
<path d="M0 0 C1.13142426 -0.00637985 2.26284851 -0.0127597 3.42855835 -0.01933289 C5.27690781 -0.02100212 5.27690781 -0.02100212 7.16259766 -0.02270508 C8.41924225 -0.02603348 9.67588684 -0.02936188 10.97061157 -0.03279114 C13.63555425 -0.03786614 16.30039504 -0.04063044 18.96533203 -0.04003906 C22.38078949 -0.03993753 25.79603865 -0.05357742 29.21144676 -0.07081127 C32.46598935 -0.08460496 35.72052979 -0.08402014 38.97509766 -0.08520508 C40.20328217 -0.09239059 41.43146667 -0.09957611 42.6968689 -0.10697937 C43.83459747 -0.10390274 44.97232605 -0.10082611 46.14453125 -0.09765625 C47.64891251 -0.09979378 47.64891251 -0.09979378 49.1836853 -0.10197449 C51.70166016 0.14526367 51.70166016 0.14526367 54.70166016 2.14526367 C55.91259766 4.79760742 55.91259766 4.79760742 57.07666016 8.08276367 C58.65745028 12.38497393 60.2898934 16.60405498 62.20166016 20.77026367 C62.60642578 21.65456055 63.01119141 22.53885742 63.42822266 23.44995117 C64.31281843 25.3222551 65.22652939 27.1809682 66.16259766 29.02807617 C68.8481286 34.473324 70.56879008 38.04597257 68.70166016 44.14526367 C67.63916016 46.58276367 67.63916016 46.58276367 66.70166016 48.14526367 C66.04166016 48.14526367 65.38166016 48.14526367 64.70166016 48.14526367 C64.61916016 48.83362305 64.53666016 49.52198242 64.45166016 50.23120117 C63.51764417 53.86024244 61.72611536 56.66987423 59.70166016 59.77026367 C56.79482357 64.24609238 56.79482357 64.24609238 54.70166016 69.14526367 C54.04166016 69.14526367 53.38166016 69.14526367 52.70166016 69.14526367 C52.57275391 69.735896 52.44384766 70.32652832 52.31103516 70.93505859 C51.35689569 74.39572549 49.47930062 77.3651003 47.70166016 80.45776367 C47.30591797 81.15474365 46.91017578 81.85172363 46.50244141 82.56982422 C43.27501011 88.2235559 39.94078924 93.81215824 36.53369141 99.359375 C34.95772489 101.94343382 33.66296029 104.26136328 32.70166016 107.14526367 C32.04166016 107.14526367 31.38166016 107.14526367 30.70166016 107.14526367 C30.20666016 109.12526367 30.20666016 109.12526367 29.70166016 111.14526367 C28.71166016 111.14526367 27.72166016 111.14526367 26.70166016 111.14526367 C26.70166016 88.04526367 26.70166016 64.94526367 26.70166016 41.14526367 C28.02166016 40.48526367 29.34166016 39.82526367 30.70166016 39.14526367 C31.5754704 35.27553258 32.1139859 32.56966171 31.01416016 28.77026367 C29.31626498 26.66810774 28.31379192 25.92184339 25.70166016 25.14526367 C20.79964994 25.31245994 20.79964994 25.31245994 16.76416016 27.83276367 C15.34032065 30.93170848 15.15012189 32.7670918 15.70166016 36.14526367 C16.93706795 37.2611512 16.93706795 37.2611512 18.19743347 38.39958191 C21.36386838 41.87132137 21.31106137 43.50172942 21.26928711 48.13867188 C21.27001724 48.82215195 21.27074738 49.50563202 21.27149963 50.20982361 C21.26803201 52.45605442 21.22921657 54.7001791 21.18994141 56.94604492 C21.18061018 58.50830452 21.17349553 60.07057879 21.16850281 61.63285828 C21.14945691 65.73496241 21.10037828 69.83617441 21.04498291 73.93792725 C20.99373759 78.12735934 20.97097758 82.31693629 20.94580078 86.5065918 C20.89225596 94.71989079 20.80697386 102.9324661 20.70166016 111.14526367 C18.28735352 110.76611328 18.28735352 110.76611328 15.70166016 110.14526367 C14.33056641 108.21166992 14.33056641 108.21166992 13.26416016 105.70776367 C11.6721916 102.21427712 10.03545003 98.90998749 8.01416016 95.64526367 C5.10070214 90.88736842 2.39499808 86.0296225 -0.29833984 81.14526367 C-3.34325595 75.62894865 -6.43767349 70.16676221 -9.72412109 64.78979492 C-12.31373964 60.43949281 -14.76595263 56.01144374 -17.22827148 51.58813477 C-18.83772629 48.70413247 -20.46527789 45.8948566 -22.29833984 43.14526367 C-22.49684587 39.4398178 -22.47498856 36.67520981 -21.29833984 33.14526367 C-20.63833984 33.14526367 -19.97833984 33.14526367 -19.29833984 33.14526367 C-18.96833984 30.83526367 -18.63833984 28.52526367 -18.29833984 26.14526367 C-17.63833984 26.14526367 -16.97833984 26.14526367 -16.29833984 26.14526367 C-16.23646484 25.38213867 -16.17458984 24.61901367 -16.11083984 23.83276367 C-14.95031995 18.56578879 -12.64166106 13.98220659 -10.29833984 9.14526367 C-9.90775391 8.33573242 -9.51716797 7.52620117 -9.11474609 6.69213867 C-5.83977319 0.02223048 -5.83977319 0.02223048 0 0 Z " fill="#5A09FA" transform="translate(302.29833984375,786.854736328125)"/>
<path d="M0 0 C7.66279472 5.42246181 14.0140631 13.17143187 15.72265625 22.609375 C16.52443533 35.25382544 16.01722446 44.6981526 7.72265625 54.859375 C0.64320427 62.31451929 -8.46785169 66.58730809 -18.70898438 66.95288086 C-29.94938885 67.12403433 -39.2273409 64.57065634 -47.53125 56.54296875 C-54.40986777 48.92570746 -58.05539185 40.90604385 -58.37109375 30.52734375 C-57.81579633 19.71292654 -54.38273419 11.73569826 -46.921875 3.87890625 C-33.72746422 -7.44450979 -14.82971719 -9.05553914 0 0 Z M-44.27734375 11.609375 C-49.57890286 19.20921638 -52.12131443 26.77855216 -50.87109375 36.02734375 C-48.66468654 45.62231193 -43.33431343 51.66883681 -35.25390625 56.92578125 C-27.92033887 60.83792593 -19.36623349 60.84011192 -11.40234375 58.9140625 C-3.25444052 55.95796346 1.87150376 51.62701292 6.16015625 44.109375 C9.79919857 36.18391355 10.3084776 28.64005173 7.6796875 20.30078125 C3.91470476 11.85329896 -1.65950043 6.52037678 -10.02734375 2.671875 C-22.20433944 -1.20923917 -35.84135017 1.9036783 -44.27734375 11.609375 Z " fill="#FFFFFF" transform="translate(1912.27734375,222.390625)"/>
<path d="M0 0 C19 0 19 0 25 4 C26.85493664 7.70987327 26.59596347 11.96139651 26 16 C24.55214852 18.29327525 23.20749707 19.34437719 21 21 C21.8971875 22.3303125 21.8971875 22.3303125 22.8125 23.6875 C25.9023818 29.00957399 26.81443906 35.0272877 28 41 C25.69 41 23.38 41 21 41 C20.73445313 40.01257813 20.46890625 39.02515625 20.1953125 38.0078125 C19.83889247 36.71344502 19.48210234 35.41917941 19.125 34.125 C18.95097656 33.47402344 18.77695313 32.82304687 18.59765625 32.15234375 C17.50470421 28.1931563 17.50470421 28.1931563 15 25 C12.36 24.34 9.72 23.68 7 23 C7 28.94 7 34.88 7 41 C4.69 41 2.38 41 0 41 C0 27.47 0 13.94 0 0 Z M7 5 C7 9.62 7 14.24 7 19 C13.13762276 18.74354382 13.13762276 18.74354382 18.625 16.375 C20.31063919 13.93437799 20.31063919 13.93437799 19.9375 10.375 C19.3249155 6.74483076 19.3249155 6.74483076 16 5 C12.97670744 4.7389212 10.04123758 4.91184819 7 5 Z " fill="#FFFFFF" transform="translate(1879,233)"/>
</svg>
